<?xml version="1.0" standalone="no"?>
<!DOCTYPE svg PUBLIC "-//W3C//DTD SVG 1.1//EN" "http://www.w3.org/Graphics/SVG/1.1/DTD/svg11.dtd" >
<!--
2013-9-30: Created.
-->
<svg>
<metadata>
Created by iconfont
</metadata>
<defs>

<font id="iconfont" horiz-adv-x="1024" >
  <font-face
    font-family="iconfont"
    font-weight="500"
    font-stretch="normal"
    units-per-em="1024"
    ascent="896"
    descent="-128"
  />
    <missing-glyph />
    
    <glyph glyph-name="bar_gongzuotai_sel2x" unicode="&#59849;" d="M430.08 343.04a40.96 40.96 0 0 0 40.96-40.96V-5.12a40.96 40.96 0 0 0-40.96-40.96H122.88a40.96 40.96 0 0 0-40.96 40.96v307.2a40.96 40.96 0 0 0 40.96 40.96h307.2z m471.04 0a40.96 40.96 0 0 0 40.96-40.96V-5.12a40.96 40.96 0 0 0-40.96-40.96h-307.2a40.96 40.96 0 0 0-40.96 40.96v307.2a40.96 40.96 0 0 0 40.96 40.96H901.12zM430.08 814.08a40.96 40.96 0 0 0 40.96-40.96v-307.2a40.96 40.96 0 0 0-40.96-40.96H122.88a40.96 40.96 0 0 0-40.96 40.96V773.12a40.96 40.96 0 0 0 40.96 40.96h307.2zM901.12 814.08a40.96 40.96 0 0 0 40.96-40.96v-307.2a40.96 40.96 0 0 0-40.96-40.96h-307.2a40.96 40.96 0 0 0-40.96 40.96V773.12a40.96 40.96 0 0 0 40.96 40.96H901.12z"  horiz-adv-x="1024" />

    
    <glyph glyph-name="bar_gongzuotai2x" unicode="&#59846;" d="M430.08 343.04a40.96 40.96 0 0 0 40.96-40.96V-5.12a40.96 40.96 0 0 0-40.96-40.96H122.88a40.96 40.96 0 0 0-40.96 40.96v307.2a40.96 40.96 0 0 0 40.96 40.96h307.2z m471.04 0a40.96 40.96 0 0 0 40.96-40.96V-5.12a40.96 40.96 0 0 0-40.96-40.96h-307.2a40.96 40.96 0 0 0-40.96 40.96v307.2a40.96 40.96 0 0 0 40.96 40.96H901.12z m-512-81.92H163.84V35.84h225.28v225.28z m471.04 0h-225.28V35.84H860.16v225.28zM430.08 814.08a40.96 40.96 0 0 0 40.96-40.96v-307.2a40.96 40.96 0 0 0-40.96-40.96H122.88a40.96 40.96 0 0 0-40.96 40.96V773.12a40.96 40.96 0 0 0 40.96 40.96h307.2zM901.12 814.08a40.96 40.96 0 0 0 40.96-40.96v-307.2a40.96 40.96 0 0 0-40.96-40.96h-307.2a40.96 40.96 0 0 0-40.96 40.96V773.12a40.96 40.96 0 0 0 40.96 40.96H901.12zM389.12 732.16H163.84v-225.28h225.28V732.16zM860.16 732.16h-225.28v-225.28H860.16V732.16z"  horiz-adv-x="1024" />

    
    <glyph glyph-name="bar_shebei2x" unicode="&#59847;" d="M901.12 773.12a40.96 40.96 0 0 0 40.96-40.96v-737.28a40.96 40.96 0 0 0-40.96-40.96H122.88a40.96 40.96 0 0 0-40.96 40.96V732.16a40.96 40.96 0 0 0 40.96 40.96h778.24z m-40.96-450.56H163.84v-286.72h696.32v286.72z m-102.4-122.88a20.48 20.48 0 0 0 20.48-20.48v-40.96a20.48 20.48 0 0 0-20.48-20.48h-81.92a20.48 20.48 0 0 0-20.48 20.48v40.96a20.48 20.48 0 0 0 20.48 20.48h81.92zM860.16 691.2H163.84v-286.72h696.32V691.2z m-102.4-122.88a20.48 20.48 0 0 0 20.48-20.48v-40.96a20.48 20.48 0 0 0-20.48-20.48h-81.92a20.48 20.48 0 0 0-20.48 20.48v40.96a20.48 20.48 0 0 0 20.48 20.48h81.92z"  horiz-adv-x="1024" />

    
    <glyph glyph-name="bar_shebei_sel2x" unicode="&#59848;" d="M901.12 322.56a40.96 40.96 0 0 0 40.96-40.96v-286.72a40.96 40.96 0 0 0-40.96-40.96H122.88a40.96 40.96 0 0 0-40.96 40.96v286.72a40.96 40.96 0 0 0 40.96 40.96h778.24z m-143.36-122.88h-81.92a20.48 20.48 0 0 1-20.48-20.48v-40.96a20.48 20.48 0 0 1 20.48-20.48h81.92a20.48 20.48 0 0 1 20.48 20.48v40.96a20.48 20.48 0 0 1-20.48 20.48zM901.12 773.12a40.96 40.96 0 0 0 40.96-40.96v-286.72a40.96 40.96 0 0 0-40.96-40.96H122.88a40.96 40.96 0 0 0-40.96 40.96V732.16a40.96 40.96 0 0 0 40.96 40.96h778.24z m-143.36-204.8h-81.92a20.48 20.48 0 0 1-20.48-20.48v-40.96a20.48 20.48 0 0 1 20.48-20.48h81.92a20.48 20.48 0 0 1 20.48 20.48v40.96a20.48 20.48 0 0 1-20.48 20.48z"  horiz-adv-x="1024" />

    
    <glyph glyph-name="icn_store2x" unicode="&#58894;" d="M512 864c120.107 0 218.837-89.43 223.787-202.496l0.085-4.437h60.501a123.733 123.733 0 0 0 122.88-108.928l0.64-7.467 30.422-512a123.733 123.733 0 0 0-116.182-130.859l-7.338-0.213h-629.59a123.733 123.733 0 0 0-123.52 131.072l30.422 512a123.733 123.733 0 0 0 123.52 116.395h60.458l0.128 4.437C293.12 774.571 391.893 864 512 864z m284.373-283.733H227.627a46.933 46.933 0 0 1-46.848-44.16L150.315 22.74l0.256-6.528a46.933 46.933 0 0 1 46.634-41.813h629.59l2.773 0.085a46.933 46.933 0 0 1 44.075 49.622l-30.422 512a46.933 46.933 0 0 1-46.848 44.16zM352 533.333c0-86.954 71.552-157.61 160-157.61 85.59 0 155.35 66.133 159.787 149.248l0.213 8.362h64c0-122.453-100.395-221.61-224-221.61-120.533 0-218.965 94.208-223.83 212.48l-0.17 9.13h64zM512 800c-85.973 0-155.392-62.293-159.787-139.69l-0.128-3.243H671.83l-0.042 3.242C667.392 737.707 597.973 800 512 800z"  horiz-adv-x="1024" />

    
    <glyph glyph-name="icn_browser2x" unicode="&#58893;" d="M512 896c282.752 0 512-229.248 512-512s-229.248-512-512-512S0 101.248 0 384 229.248 896 512 896z m0.981-770.133c-37.674 0-75.008-1.622-111.786-4.864 13.397-61.867 31.573-121.216 54.229-177.152a447.787 447.787 0 0 1 109.995-0.427 1092.693 1092.693 0 0 1 54.528 177.963 1263.403 1263.403 0 0 1-106.966 4.522z m170.88-11.52l-1.109-5.376a1173.845 1173.845 0 0 0-42.923-150.059 444.416 444.416 0 0 1 198.016 123.904 1173.973 1173.973 0 0 1-154.026 31.573z m-346.624-0.683l-3.925-0.555c-50.304-7.253-99.328-17.493-146.773-30.72a443.733 443.733 0 0 1 194.304-122.453 1165.227 1165.227 0 0 0-43.606 153.728z m-27.52 238.293H69.42a441.216 441.216 0 0 1 74.24-215.466l1.152 0.426a1225.6 1225.6 0 0 0 180.778 39.766 1308.203 1308.203 0 0 0-15.872 175.274z m644.864 0H711.296a1313.237 1313.237 0 0 0-15.787-174.677c63.744-8.79 125.696-22.315 185.174-40.235 41.813 62.251 68.266 135.68 73.898 214.955z m-307.285 0H373.717c1.451-57.088 6.656-113.28 15.488-167.85a1337.344 1337.344 0 0 0 242.688 0.512c8.79 54.357 13.952 110.378 15.36 167.338zM149.035 639.232l-4.182-5.973A441.259 441.259 0 0 1 69.42 415.957h240.298c1.494 62.848 7.339 124.587 17.366 184.619a1221.675 1221.675 0 0 0-178.048 38.656z m241.792-46.123l-2.176-12.97A1249.024 1249.024 0 0 1 373.76 416h273.579A1245.867 1245.867 0 0 1 630.4 592.725a1336.747 1336.747 0 0 0-239.616 0.342z m484.522 45.739l-18.645-5.419a1235.84 1235.84 0 0 0-162.645-33.578c9.984-59.734 15.786-121.259 17.28-183.894h243.285a441.301 441.301 0 0 1-79.275 222.891zM512 827.733a448 448 0 0 1-56.533-3.584A1085.227 1085.227 0 0 1 403.2 656.3a1275.008 1275.008 0 0 1 214.699-0.427 1086.635 1086.635 0 0 1-52.48 168.661c-17.494 2.134-35.328 3.2-53.419 3.2z m127.787-18.688l0.725-1.834a1173.333 1173.333 0 0 0 41.387-144.342c50.986 6.827 100.736 16.811 148.821 29.782A443.307 443.307 0 0 1 639.787 809.045zM380.8 807.98l-6.87-2.134a443.819 443.819 0 0 1-180.223-112.682 1159.68 1159.68 0 0 1 145.536-29.739c10.965 49.835 24.832 98.133 41.514 144.555z"  horiz-adv-x="1024" />

    
    <glyph glyph-name="icn_link2x" unicode="&#58892;" d="M572.33 746.027a213.333 213.333 0 0 0 308.097-294.998l-6.4-6.698-72.534-72.534a42.667 42.667 0 0 0-63.658 56.619l3.328 3.712 72.533 72.533a128 128 0 0 1-175.53 186.198l-5.505-5.12L474.07 527.104a128 128 0 0 1-5.12-175.53l5.12-5.505 15.659-15.616a42.667 42.667 0 0 0-56.619-63.658l-3.754 3.328-15.616 15.616a213.333 213.333 0 0 0-6.4 295.04l6.4 6.656L572.33 746.027zM222.508 396.203a42.667 42.667 0 0 0 63.658-56.619l-3.328-3.712-72.533-72.533a128 128 0 0 1 175.53-186.198l5.505 5.12L549.93 240.896a128 128 0 0 1 5.12 175.53l-5.12 5.505-15.659 15.616a42.667 42.667 0 0 0 56.619 63.658l3.754-3.328 15.616-15.616a213.333 213.333 0 0 0 6.4-295.04l-6.4-6.656L451.67 21.973a213.333 213.333 0 0 0-308.096 294.998l6.4 6.698 72.534 72.534z"  horiz-adv-x="1024" />

    
    <glyph glyph-name="icn_shequ2x" unicode="&#58891;" d="M988.373 520.704a38.4 38.4 0 0 0-43.946-62.805l-3.968 2.773L514.517 800.555a4.267 4.267 0 0 1-4.053 0.682l-1.28-0.682L83.243 460.672a38.4 38.4 0 0 0-51.456 56.747l3.584 3.285L461.312 860.587a81.067 81.067 0 0 0 95.744 3.84l5.376-3.883 425.941-339.883z m-113.706-140.97a38.4 38.4 0 0 0 38.101-33.58l0.299-4.82v-327.851a81.067 81.067 0 0 0-74.752-80.811l-6.315-0.256H192a81.067 81.067 0 0 0-80.81 74.71l-0.257 6.357v327.85a38.4 38.4 0 0 0 76.502 4.822l0.298-4.822v-327.85a4.267 4.267 0 0 1 2.603-3.926l1.664-0.341h640a4.267 4.267 0 0 1 3.925 2.56l0.342 1.707v327.85a38.4 38.4 0 0 0 38.4 38.4zM406.997 451.84c-46.72-13.397-77.013-43.35-89.813-81.11-4.693-13.866-7.04-29.14-5.035-48.725 2.774-27.477 14.08-56.789 35.627-87.466 30.848-43.99 81.067-84.864 150.357-123.307l14.379-7.979 14.421 7.894c60.374 32.981 106.667 69.205 138.838 108.97 46.933 58.112 59.093 124.971 34.304 169.899-16.043 29.099-39.04 48.81-70.443 58.283l-8.96 2.432a129.067 129.067 0 0 1-107.35-20.352l-6.826 4.821c-30.933 20.65-64.725 26.624-99.499 16.64z m73.942-71.936l5.845-5.12a38.4 38.4 0 0 1 51.456-0.683c22.912 20.096 46.336 25.43 74.112 17.024 15.872-4.778 26.624-13.994 35.413-29.952 11.904-21.546 4.395-62.89-28.458-103.552l-7.68-8.96c-21.206-23.893-49.622-46.848-85.248-68.821l-13.696-8.15-11.051 6.571c-48.64 29.739-83.541 60.032-104.96 90.582-26.965 38.4-29.483 63.402-22.955 82.688 6.656 19.626 22.23 34.986 49.75 42.88 19.669 5.632 37.973 1.408 57.472-14.507z"  horiz-adv-x="1024" />

    
    <glyph glyph-name="icn_daiban2x" unicode="&#58890;" d="M832 870.4H192A123.733 123.733 0 0 1 68.267 746.667v-725.334A123.733 123.733 0 0 1 192-102.4h640a123.733 123.733 0 0 1 123.733 123.733V746.667A123.733 123.733 0 0 1 832 870.4z m-640-76.8h640a46.933 46.933 0 0 0 46.933-46.933v-725.334A46.933 46.933 0 0 0 832-25.6H192a46.933 46.933 0 0 0-46.933 46.933V746.667A46.933 46.933 0 0 0 192 793.6zM522.667 554.667h234.666q32 0 32-32t-32-32H522.667q-32 0-32 32t32 32zM341.333 320a96 96 0 1 1 0-192 96 96 0 0 1 0 192z m0-64a32 32 0 1 0 0-64 32 32 0 0 0 0 64zM522.667 256h234.666q32 0 32-32t-32-32H522.667q-32 0-32 32t32 32zM228.267 580.95a32 32 0 0 0 41.984 2.858l3.242-2.859 37.718-37.717 88.32 88.32a32 32 0 0 0 41.984 2.901l3.285-2.901a32 32 0 0 0 2.859-41.941l-2.859-3.286-95.872-95.872a53.333 53.333 0 0 0-71.381-3.669l-4.054 3.67-45.226 45.226a32 32 0 0 0 0 45.27z"  horiz-adv-x="1024" />

    
    <glyph glyph-name="icn_work_box2x" unicode="&#58889;" d="M640 842.667a74.667 74.667 0 0 0 74.41-68.523l0.257-6.144v-89.6h138.666a123.733 123.733 0 0 0 123.52-116.48l0.214-7.253v-512a123.733 123.733 0 0 0-123.734-123.734H170.667A123.733 123.733 0 0 0 46.933 42.667v512A123.733 123.733 0 0 0 170.667 678.4h138.666V768a74.667 74.667 0 0 0 68.523 74.41l6.144 0.257h256z m260.267-437.291H123.733v-362.71a46.933 46.933 0 0 1 41.814-46.677l5.12-0.256h682.666a46.933 46.933 0 0 1 46.934 46.934V405.376z m-505.6-0.043a117.333 117.333 0 0 1 234.453-7.168l0.213 7.168h64a181.333 181.333 0 0 0-362.453-8.789l-0.213 8.79h64zM853.333 601.6H170.667a46.933 46.933 0 0 1-46.934-46.933v-85.291h776.534v85.29a46.933 46.933 0 0 1-41.814 46.678l-5.12 0.256zM640 778.667H384a10.667 10.667 0 0 1-10.368-8.235l-0.299-2.432v-89.6h277.334V768a10.667 10.667 0 0 1-8.235 10.368l-2.432 0.299z"  horiz-adv-x="1024" />

    
    <glyph glyph-name="icn_account2x" unicode="&#58888;" d="M512 896c282.752 0 512-229.248 512-512s-229.248-512-512-512S0 101.248 0 384 229.248 896 512 896z m0-68.267C266.923 827.733 68.267 629.077 68.267 384S266.923-59.733 512-59.733 955.733 138.923 955.733 384 757.077 827.733 512 827.733zM512 384c94.763 0 135.808-5.248 197.973-38.827 62.08-33.621 86.4-92.074 79.36-131.84-15.658-88.746-118.229-105.813-264.661-106.709l-12.672-0.043c-153.173 0-266.923 18.176-277.333 106.71-4.011 34.09 10.41 84.821 72.96 123.861 59.349 37.077 104.832 45.995 190.506 46.805L512 384z m0-64l-25.173-0.213c-70.955-1.451-102.187-9.984-145.366-36.95-33.834-21.12-45.354-44.117-43.221-62.08 3.584-30.762 64.341-50.176 213.76-50.176 152.32 0 207.915 17.622 214.315 53.846 2.901 16.554-13.27 46.293-46.848 64.426l-13.227 6.87C625.579 315.776 594.688 320 512 320z m6.741 384a128 128 0 0 0 7.51-255.787l-7.51-0.213a128 128 0 0 0-7.509 255.787l7.51 0.213z m0-64a64 64 0 1 1 0-128 64 64 0 0 1 0 128z"  horiz-adv-x="1024" />

    
    <glyph glyph-name="icn_picture2x" unicode="&#58887;" d="M874.667 806.4A123.733 123.733 0 0 0 998.4 682.667v-597.334A123.733 123.733 0 0 0 874.667-38.4H149.333A123.733 123.733 0 0 0 25.6 85.333V682.667A123.733 123.733 0 0 0 149.333 806.4zM648.704 392.192c-94.677-9.813-176.725-78.763-246.315-211.37-2.602-4.48-2.602-4.48-5.888-8.534a42.667 42.667 0 0 0-60.245-3.541c-38.912 34.56-76.97 56.533-114.09 66.474-35.755 9.558-74.667 10.496-116.907 2.646l-2.902-0.598 0.043-151.936a46.933 46.933 0 0 1 41.813-46.677l5.12-0.256h725.334a46.933 46.933 0 0 1 46.933 46.933V300.672l-6.912 6.016c-77.483 67.712-165.376 95.957-265.984 85.504zM874.667 729.6H149.333a46.933 46.933 0 0 1-46.933-46.933v-376.022c48.427 7.808 94.293 6.059 137.387-5.504 36.138-9.642 71.68-27.392 106.837-53.077l10.453-7.893 0.427 0.768c74.07 128.597 164.95 202.282 272.597 217.728l11.563 1.45c103.381 10.667 197.205-13.482 279.979-72.064l-0.043 294.614a46.933 46.933 0 0 1-46.933 46.933zM320 640a106.667 106.667 0 1 0 0-213.333A106.667 106.667 0 0 0 320 640z m0-64a42.667 42.667 0 1 1 0-85.333A42.667 42.667 0 0 1 320 576z"  horiz-adv-x="1024" />

    
    <glyph glyph-name="icn_gongdan2x" unicode="&#58886;" d="M671.999922 736.000078c0-29.439986-23.892988-53.332974-53.332974-53.332974h-255.999875c-29.439986 0-53.333974 23.892988-53.333974 53.332974v14.932993H170.667167a46.932977 46.932977 0 0 1-46.677978-41.81298l-0.255999-5.119997v-639.999688a46.932977 46.932977 0 0 1 41.813979-46.676977l5.119998-0.256h208.127898a38.399981 38.399981 0 0 0 4.820998-76.501962l-4.820998-0.298H170.667167a123.73294 123.73294 0 0 0-123.51994 116.479943L46.933227 64.000406V704.000094a123.73294 123.73294 0 0 0 116.479943 123.519939l7.253997 0.213h138.665932V842.667026c0 27.604987 20.99199 50.345975 47.871977 53.076974L362.667073 896h255.999875C648.106934 896 671.999922 872.107012 671.999922 842.667026v-14.933993h138.666932a123.73294 123.73294 0 0 0 123.51994-116.479943L934.399794 704.000094v-191.999907a38.399981 38.399981 0 0 0-76.500963-4.820997L857.599831 512.000187V704.000094a46.932977 46.932977 0 0 1-41.812979 46.676977l-5.119998 0.256H671.999922z m-63.999969 95.999953H373.333068v-85.332958H607.999953V832.000031zM251.733127 554.667167h392.533808q38.399981 0 38.399982-38.399982t-38.399982-38.399981H251.733127q-38.399981 0-38.399981 38.399981t38.399981 38.399982zM251.733127 341.333271h136.533933q38.399981 0 38.399982-38.399981t-38.399982-38.399982H251.733127q-38.399981 0-38.399981 38.399982t38.399981 38.399981zM757.33288 405.33324a266.66687 266.66687 0 1 1 0-533.33274 266.66687 266.66687 0 0 1 0 533.33274z m0-63.999969a202.666901 202.666901 0 1 0 0-405.332802 202.666901 202.666901 0 0 0 0 405.332802zM725.332896 251.733315a31.999984 31.999984 0 1 0 63.999969 0v-91.689956L863.999828 160.000359a31.999984 31.999984 0 1 0 0-63.999968h-95.999953a42.666979 42.666979 0 0 0-42.666979 42.666979V251.733315z"  horiz-adv-x="1024" />

    
    <glyph glyph-name="icn_tips_40x402x" unicode="&#59814;" d="M512 384m-512 0a512 512 0 1 1 1024 0 512 512 0 1 1-1024 0ZM512 230.4a51.2 51.2 0 1 0 0-102.4 51.2 51.2 0 0 0 0 102.4z m12.8 409.6a25.6 25.6 0 0 0 25.6-25.6v-256a25.6 25.6 0 0 0-25.6-25.6h-25.6a25.6 25.6 0 0 0-25.6 25.6V614.4a25.6 25.6 0 0 0 25.6 25.6h25.6z"  horiz-adv-x="1024" />

    
    <glyph glyph-name="icn_big2x" unicode="&#59807;" d="M910.222222 327.111111a113.777778 113.777778 0 0 0 113.777778-113.777778v-227.555555a113.777778 113.777778 0 0 0-113.777778-113.777778H113.777778a113.777778 113.777778 0 0 0-113.777778 113.777778v227.555555a113.777778 113.777778 0 0 0 113.777778 113.777778h796.444444z m0-85.333333H113.777778a28.444444 28.444444 0 0 1-27.989334-23.324445L85.333333 213.333333v-227.555555a28.444444 28.444444 0 0 1 23.324445-27.989334L113.777778-42.666667h796.444444a28.444444 28.444444 0 0 1 27.989334 23.324445L938.666667-14.222222v227.555555a28.444444 28.444444 0 0 1-28.444445 28.444445zM910.222222 896a113.777778 113.777778 0 0 0 113.777778-113.777778v-227.555555a113.777778 113.777778 0 0 0-113.777778-113.777778H113.777778a113.777778 113.777778 0 0 0-113.777778 113.777778V782.222222a113.777778 113.777778 0 0 0 113.777778 113.777778h796.444444z m0-85.333333H113.777778a28.444444 28.444444 0 0 1-27.989334-23.324445L85.333333 782.222222v-227.555555a28.444444 28.444444 0 0 1 23.324445-27.989334L113.777778 526.222222h796.444444a28.444444 28.444444 0 0 1 27.989334 23.324445L938.666667 554.666667V782.222222a28.444444 28.444444 0 0 1-28.444445 28.444445z"  horiz-adv-x="1024" />

    
    <glyph glyph-name="icn_small2x" unicode="&#59806;" d="M568.888889 213.333333a113.777778 113.777778 0 0 0 113.777778 113.777778h227.555555a113.777778 113.777778 0 0 0 113.777778-113.777778v-227.555555a113.777778 113.777778 0 0 0-113.777778-113.777778h-227.555555a113.777778 113.777778 0 0 0-113.777778 113.777778v227.555555z m0 568.888889a113.777778 113.777778 0 0 0 113.777778 113.777778h227.555555a113.777778 113.777778 0 0 0 113.777778-113.777778v-227.555555a113.777778 113.777778 0 0 0-113.777778-113.777778h-227.555555a113.777778 113.777778 0 0 0-113.777778 113.777778V782.222222z m85.333333-568.888889v-227.555555a28.444444 28.444444 0 0 1 23.324445-27.989334l5.12-0.455111h227.555555a28.444444 28.444444 0 0 1 27.989334 23.324445L938.666667-14.222222v227.555555a28.444444 28.444444 0 0 1-23.324445 27.989334L910.222222 241.777778h-227.555555a28.444444 28.444444 0 0 1-28.444445-28.444445z m0 568.888889v-227.555555a28.444444 28.444444 0 0 1 23.324445-27.989334L682.666667 526.222222h227.555555a28.444444 28.444444 0 0 1 27.989334 23.324445L938.666667 554.666667V782.222222a28.444444 28.444444 0 0 1-23.324445 27.989334L910.222222 810.666667h-227.555555a28.444444 28.444444 0 0 1-28.444445-28.444445zM0 213.333333a113.777778 113.777778 0 0 0 113.777778 113.777778h227.555555a113.777778 113.777778 0 0 0 113.777778-113.777778v-227.555555a113.777778 113.777778 0 0 0-113.777778-113.777778H113.777778a113.777778 113.777778 0 0 0-113.777778 113.777778v227.555555zM0 782.222222a113.777778 113.777778 0 0 0 113.777778 113.777778h227.555555a113.777778 113.777778 0 0 0 113.777778-113.777778v-227.555555a113.777778 113.777778 0 0 0-113.777778-113.777778H113.777778a113.777778 113.777778 0 0 0-113.777778 113.777778V782.222222z m85.333333-568.888889v-227.555555a28.444444 28.444444 0 0 1 23.324445-27.989334L113.777778-42.666667h227.555555a28.444444 28.444444 0 0 1 27.989334 23.324445L369.777778-14.222222v227.555555a28.444444 28.444444 0 0 1-23.324445 27.989334L341.333333 241.777778H113.777778a28.444444 28.444444 0 0 1-28.444445-28.444445z m0 568.888889v-227.555555a28.444444 28.444444 0 0 1 23.324445-27.989334L113.777778 526.222222h227.555555a28.444444 28.444444 0 0 1 27.989334 23.324445L369.777778 554.666667V782.222222a28.444444 28.444444 0 0 1-23.324445 27.989334L341.333333 810.666667H113.777778a28.444444 28.444444 0 0 1-28.444445-28.444445z"  horiz-adv-x="1024" />

    
    <glyph glyph-name="navigation_icn_my_nor" unicode="&#59788;" d="M815.104 278.613333c95.274667-54.272 132.522667-148.650667 121.770667-212.906666-23.210667-138.581333-171.050667-168.96-383.786667-172.074667l-41.514667-0.298667-40.789333 0.341334c-214.058667 3.498667-369.493333 37.418667-384.512 171.989333-6.144 55.04 15.957333 136.96 111.829333 199.978667 92.373333 60.714667 162.730667 74.666667 297.6 75.648L511.573333 341.333333c145.365333 0 208.298667-8.448 303.530667-62.72z m-274.346667-14.208l-14.250666 0.085334-14.933334 0.042666c-140.117333 0-194.176-12.373333-271.274666-63.061333-59.605333-39.168-82.218667-86.741333-77.653334-127.274667 7.808-70.272 108.330667-104.064 348.928-104.064l30.378667 0.170667c221.696 2.56 306.773333 33.92 319.146667 108.074667 6.698667 39.850667-24.064 99.370667-84.010667 133.504-71.296 40.618667-115.925333 51.2-236.330667 52.48zM512 853.333333a213.333333 213.333333 0 0 0 9.258667-426.453333L512 426.666667a213.333333 213.333333 0 0 0-9.258667 426.453333L512 853.333333z m0-76.8a136.533333 136.533333 0 1 1 0-273.066666 136.533333 136.533333 0 0 1 0 273.066666z"  horiz-adv-x="1024" />

    
    <glyph glyph-name="icn_add_bottom_nor2x" unicode="&#59780;" d="M512 384m-512 0a512 512 0 1 1 1024 0 512 512 0 1 1-1024 0ZM532.48 558.08a10.24 10.24 0 0 0 10.24-10.24v-143.36H675.84a10.24 10.24 0 0 0 10.24-10.24V363.52a10.24 10.24 0 0 0-10.24-10.24h-133.12V220.16a10.24 10.24 0 0 0-10.24-10.24h-30.72a10.24 10.24 0 0 0-10.24 10.24v133.12h-143.36a10.24 10.24 0 0 0-10.24 10.24v30.72a10.24 10.24 0 0 0 10.24 10.24h143.36v143.36a10.24 10.24 0 0 0 10.24 10.24H532.48z"  horiz-adv-x="1024" />

    
    <glyph glyph-name="icn_edit_bottom_nor2x" unicode="&#59783;" d="M512 384m-512 0a512 512 0 1 1 1024 0 512 512 0 1 1-1024 0ZM507.51488 486.76864l88.02304-61.6448-128.06144-182.8864-81.55136-38.2976a10.24 10.24 0 0 0-14.5408 10.17856l8.0896 89.74336 128.04096 182.90688z m55.296 78.92992a10.24 10.24 0 0 0 14.25408 2.51904l71.24992-49.88928a10.24 10.24 0 0 0 2.49856-14.25408l-41.32864-59.02336-88.02304 61.6448z"  horiz-adv-x="1024" />

    
    <glyph glyph-name="icn_back_bottom_nor2x" unicode="&#59784;" d="M512 384m-512 0a512 512 0 1 1 1024 0 512 512 0 1 1-1024 0ZM634.88 539.648a145.408 145.408 0 0 0 145.32608-140.4928l0.08192-4.9152v-10.24a145.408 145.408 0 0 0-140.4928-145.32608L634.88 238.592H381.1328a10.24 10.24 0 0 0-10.24 10.24v24.576a10.24 10.24 0 0 0 10.24 10.24H634.88a100.352 100.352 0 0 1 100.2496 95.88736L735.232 384v10.24a100.352 100.352 0 0 1-95.88736 100.2496L634.88 494.592H348.7744v45.056H634.88zM406.60992 611.24608l14.47936-14.47936a10.24 10.24 0 0 0 0-14.47936L355.92192 517.12l65.16736-65.16736a10.24 10.24 0 0 0 0-14.47936l-14.47936-14.47936a10.24 10.24 0 0 0-14.49984 0l-78.19264 78.19264a22.528 22.528 0 0 0-1.6384 30.04416l1.6384 1.82272 78.19264 78.19264a10.24 10.24 0 0 0 14.49984 0z"  horiz-adv-x="1024" />

    
    <glyph glyph-name="icn_my_company2x" unicode="&#59774;" d="M512 746.666667a42.666667 42.666667 0 0 0 42.666667-42.666667v-168.917333h256a42.666667 42.666667 0 0 0 42.666666-42.666667v-469.333333a42.666667 42.666667 0 0 0-42.666666-42.666667h-256v-1.749333H192a42.666667 42.666667 0 0 0-42.666667 42.666666v682.666667a42.666667 42.666667 0 0 0 42.666667 42.666667H512zM413.866667 206.933333h-128a21.333333 21.333333 0 0 1-21.333334-21.333333v-42.666667a21.333333 21.333333 0 0 1 21.333334-21.333333h128a21.333333 21.333333 0 0 1 21.333333 21.333333v42.666667a21.333333 21.333333 0 0 1-21.333333 21.333333z m290.133333 0h-85.333333a21.333333 21.333333 0 0 1-21.333334-21.333333v-42.666667a21.333333 21.333333 0 0 1 21.333334-21.333333h85.333333a21.333333 21.333333 0 0 1 21.333333 21.333333v42.666667a21.333333 21.333333 0 0 1-21.333333 21.333333z m-290.133333 192h-128a21.333333 21.333333 0 0 1-21.333334-21.333333v-42.666667a21.333333 21.333333 0 0 1 21.333334-21.333333h128a21.333333 21.333333 0 0 1 21.333333 21.333333v42.666667a21.333333 21.333333 0 0 1-21.333333 21.333333z m290.133333 0h-85.333333a21.333333 21.333333 0 0 1-21.333334-21.333333v-42.666667a21.333333 21.333333 0 0 1 21.333334-21.333333h85.333333a21.333333 21.333333 0 0 1 21.333333 21.333333v42.666667a21.333333 21.333333 0 0 1-21.333333 21.333333z m-290.133333 192h-128a21.333333 21.333333 0 0 1-21.333334-21.333333v-42.666667a21.333333 21.333333 0 0 1 21.333334-21.333333h128a21.333333 21.333333 0 0 1 21.333333 21.333333v42.666667a21.333333 21.333333 0 0 1-21.333333 21.333333z"  horiz-adv-x="1024" />

    
    <glyph glyph-name="icn_guanchuanglian2x" unicode="&#59767;" d="M301.176471 685.176471v-692.705883a60.235294 60.235294 0 0 0-60.235295-60.235294H120.470588a60.235294 60.235294 0 0 0-60.235294 60.235294V685.176471h240.941177zM240.941176 624.941176H120.470588v-632.470588h120.470588V624.941176zM632.470588 685.176471v-692.705883a60.235294 60.235294 0 0 0-60.235294-60.235294h-120.470588a60.235294 60.235294 0 0 0-60.235294 60.235294V685.176471h240.941176z m-60.235294-60.235295h-120.470588v-632.470588h120.470588V624.941176zM963.764706 685.176471v-692.705883a60.235294 60.235294 0 0 0-60.235294-60.235294h-120.470588a60.235294 60.235294 0 0 0-60.235295 60.235294V685.176471h240.941177z m-60.235294-60.235295h-120.470588v-632.470588h120.470588V624.941176zM1024 775.529412a30.117647 30.117647 0 0 0-30.117647-30.117647H30.117647a30.117647 30.117647 0 0 0 0 60.235294h963.764706a30.117647 30.117647 0 0 0 30.117647-30.117647z"  horiz-adv-x="1024" />

    
    <glyph glyph-name="icn_kaichuanglian2x" unicode="&#59768;" d="M481.882353 685.176471c-6.324706-100.954353-25.509647-183.687529-57.494588-248.169412S341.293176 313.524706 271.058824 260.065882a358.490353 358.490353 0 0 0 84.08847-131.523764c13.251765-36.050824 21.624471-80.052706 25.118118-132.035765a60.235294 60.235294 0 0 0-56.048941-64.150588L320.150588-67.764706H120.470588a60.235294 60.235294 0 0 0-60.235294 60.235294V685.176471h421.647059z m-66.349177-60.235295H120.470588v-632.470588h199.68l-0.933647 12.498824c-3.553882 41.050353-10.511059 75.324235-20.60047 102.791529a297.833412 297.833412 0 0 1-61.741177 100.984471l-8.372706 8.704-48.820706 48.730353 54.904471 41.803294c63.186824 48.128 108.212706 100.080941 135.830588 155.798588 20.299294 40.869647 34.996706 91.376941 43.791059 151.491765L415.533176 624.941176zM542.117647 685.176471c6.324706-100.954353 25.509647-183.687529 57.494588-248.169412s83.094588-123.482353 153.328941-176.941177a358.490353 358.490353 0 0 1-84.08847-131.523764c-13.251765-36.050824-21.624471-80.052706-25.118118-132.035765a60.235294 60.235294 0 0 1 56.048941-64.150588l4.035765-0.120471H903.529412a60.235294 60.235294 0 0 1 60.235294 60.235294V685.176471H542.117647z m66.349177-60.235295H903.529412v-632.470588h-199.68l0.933647 12.498824c3.553882 41.050353 10.511059 75.324235 20.60047 102.791529a297.833412 297.833412 0 0 0 61.741177 100.984471l8.372706 8.704 48.820706 48.730353-54.874353 41.803294c-63.247059 48.128-108.242824 100.080941-135.890824 155.798588-20.269176 40.869647-34.936471 91.376941-43.760941 151.491765L608.466824 624.941176zM1024 775.529412a30.117647 30.117647 0 0 0-30.117647-30.117647H30.117647a30.117647 30.117647 0 0 0 0 60.235294h963.764706a30.117647 30.117647 0 0 0 30.117647-30.117647z"  horiz-adv-x="1024" />

    
    <glyph glyph-name="icn_more2x1" unicode="&#59776;" d="M485.333333 442.666667a85.333333 85.333333 0 1 0 0-170.666667 85.333333 85.333333 0 0 0 0 170.666667z m330.666667 0a85.333333 85.333333 0 1 0 0-170.666667 85.333333 85.333333 0 0 0 0 170.666667z m-661.333333 0a85.333333 85.333333 0 1 0 0-170.666667 85.333333 85.333333 0 0 0 0 170.666667z"  horiz-adv-x="1024" />

    
    <glyph glyph-name="icn_wwitch_p2_44_nor2x1" unicode="&#59777;" d="M910.731636 95.418182a139.636364 139.636364 0 0 0-139.636363-139.636364h-512a139.636364 139.636364 0 0 0-139.636364 139.636364v558.545454a139.636364 139.636364 0 0 0 139.636364 139.636364h512a139.636364 139.636364 0 0 0 139.636363-139.636364v-558.545454z m-69.818181 0v558.545454a69.818182 69.818182 0 0 1-65.69891 69.701819l-4.119272 0.116363h-512a69.818182 69.818182 0 0 1-69.701818-65.722182l-0.116364-4.096v-558.545454a69.818182 69.818182 0 0 1 65.722182-69.701818l4.096-0.116364h512a69.818182 69.818182 0 0 1 69.701818 65.722182l0.116364 4.096zM418.909091 197.818182a46.545455 46.545455 0 0 0-46.545455-46.545455h-23.272727a46.545455 46.545455 0 0 0-46.429091 43.054546L302.545455 197.818182a46.545455 46.545455 0 0 0 46.545454 46.545454h23.272727a46.545455 46.545455 0 0 0 46.429091-43.054545L418.909091 197.818182z m0 186.181818a46.545455 46.545455 0 0 0-46.545455-46.545455h-23.272727a46.545455 46.545455 0 0 0-46.429091 43.054546L302.545455 384a46.545455 46.545455 0 0 0 46.545454 46.545455h23.272727a46.545455 46.545455 0 0 0 46.429091-43.054546L418.909091 384z m0 186.181818a46.545455 46.545455 0 0 0-46.545455-46.545454h-23.272727a46.545455 46.545455 0 0 0-46.429091 43.054545L302.545455 570.181818a46.545455 46.545455 0 0 0 46.545454 46.545455h23.272727a46.545455 46.545455 0 0 0 46.429091-43.054546L418.909091 570.181818z m302.545454 0a46.545455 46.545455 0 0 0-46.545454-46.545454h-23.272727a46.545455 46.545455 0 0 0-46.429091 43.054545L605.090909 570.181818a46.545455 46.545455 0 0 0 46.545455 46.545455h23.272727a46.545455 46.545455 0 0 0 46.429091-43.054546L721.454545 570.181818z m0-186.181818a46.545455 46.545455 0 0 0-46.545454-46.545455h-23.272727a46.545455 46.545455 0 0 0-46.429091 43.054546L605.090909 384a46.545455 46.545455 0 0 0 46.545455 46.545455h23.272727a46.545455 46.545455 0 0 0 46.429091-43.054546L721.454545 384z m0-186.181818a46.545455 46.545455 0 0 0-46.545454-46.545455h-23.272727a46.545455 46.545455 0 0 0-46.429091 43.054546L605.090909 197.818182a46.545455 46.545455 0 0 0 46.545455 46.545454h23.272727a46.545455 46.545455 0 0 0 46.429091-43.054545L721.454545 197.818182z"  horiz-adv-x="1024" />

    
    <glyph glyph-name="icn_shangban2x1" unicode="&#59778;" d="M873.411765 865.882353a120.470588 120.470588 0 0 0 120.470588-120.470588l-0.120471-2.168471 0.120471-4.005647v-691.802353a90.352941 90.352941 0 0 0-68.367059-87.642353l-331.294118-83.184941a90.352941 90.352941 0 0 0-111.887058 78.757647H331.294118a120.470588 120.470588 0 0 0-120.32 114.447059l-0.150589 6.023529V173.176471a30.117647 30.117647 0 0 0 60.024471 3.523764L271.058824 173.176471v-97.340236a60.235294 60.235294 0 0 1 55.717647-60.054588l4.517647-0.180706 150.588235 0.030118V675.328a90.352941 90.352941 0 0 0 63.186823 86.166588l5.150118 1.475765L720.112941 805.647059H331.294118a60.235294 60.235294 0 0 1-60.084706-55.717647L271.058824 745.411765v-129.204706a30.117647 30.117647 0 0 0-60.024471-3.493647L210.823529 616.207059V745.411765a120.470588 120.470588 0 0 0 114.447059 120.32L331.294118 865.882353h542.117647z m57.615059-111.495529a45.176471 45.176471 0 0 1-53.549177 28.641882L564.886588 704.542118a30.117647 30.117647 0 0 1-22.768941-29.214118v-711.077647a30.117647 30.117647 0 0 1 37.466353-29.214118l331.294118 83.184941a30.117647 30.117647 0 0 1 22.768941 29.214118V739.237647a45.176471 45.176471 0 0 1-1.355294 10.992941zM310.422588 261.692235a30.117647 30.117647 0 0 0-44.935529 39.966118l2.349176 2.620235 89.47953 89.449412-89.47953 89.449412a30.117647 30.117647 0 0 0-2.349176 39.966117l2.349176 2.620236a30.117647 30.117647 0 0 0 39.966118 2.349176l2.620235-2.349176 96.888471-96.888471c18.371765-18.371765 19.365647-47.585882 2.921412-67.132235l-2.921412-3.162353-96.888471-96.888471zM391.529412 426.857412a30.117647 30.117647 0 0 0 3.523764-60.024471l-3.523764-0.210823H30.117647a30.117647 30.117647 0 0 0-3.523765 60.02447L30.117647 426.857412h361.411765z"  horiz-adv-x="1024" />

    
    <glyph glyph-name="icn_fresh_air_nor2x1" unicode="&#59779;" d="M921.6 418.133333a34.133333 34.133333 0 0 0 33.8944-30.139733L955.733333 384c0-245.077333-198.656-443.733333-443.733333-443.733333-132.096 0-250.6752 57.685333-331.9808 149.2992a34.133333 34.133333 0 0 0-64.341333 20.309333l10.683733 67.413333a34.133333 34.133333 0 0 0 35.089067 28.7744l3.959466-0.4096 67.413334-10.683733a34.133333 34.133333 0 0 0 4.096-66.525867A374.408533 374.408533 0 0 1 512 8.533333c204.0832 0 370.107733 162.816 375.330133 365.636267L887.466667 384l0.238933 3.9936A34.133333 34.133333 0 0 0 921.6 418.133333zM512 827.733333c127.829333 0 243.029333-54.0672 324.027733-140.561066a34.133333 34.133333 0 0 0 65.774934-16.896l-10.683734-67.447467a34.133333 34.133333 0 0 0-35.089066-28.7744l-3.959467 0.4096-67.413333 10.683733a34.133333 34.133333 0 0 0-7.9872 65.1264A374.101333 374.101333 0 0 1 512 759.466667C307.9168 759.466667 141.892267 596.650667 136.669867 393.8304L136.533333 384a34.133333 34.133333 0 0 0-68.027733-3.9936L68.266667 384l0.136533 10.478933C73.966933 634.709333 270.4384 827.733333 512 827.733333zM401.339733 517.188267c89.941333 51.9168 294.058667 26.999467 317.576534-13.7216 23.552-40.721067-56.968533-229.956267-146.909867-281.9072-101.922133-58.811733-223.982933-31.402667-266.922667 42.973866s-5.666133 193.809067 96.256 252.654934z m184.0128-40.96c-61.201067 7.509333-114.517333 2.2528-149.879466-18.158934-48.196267-27.8528-74.8544-73.386667-79.2576-112.3328 53.418667 47.650133 111.752533 78.984533 174.728533 93.627734a34.133333 34.133333 0 1 0 15.428267-66.525867c-57.719467-13.380267-111.3088-44.3392-161.109334-93.422933l-1.672533-1.467734c34.542933-24.610133 97.553067-30.0032 154.282667 2.730667 35.362133 20.411733 66.56 63.965867 90.692266 120.7296 9.1136 21.435733 16.622933 43.383467 21.845334 62.8736l-0.136534-0.4096-11.605333 2.901333a496.093867 496.093867 0 0 1-39.492267 7.611734z"  horiz-adv-x="1024" />

    
    <glyph glyph-name="icn_xiaban2x1" unicode="&#59781;" d="M873.411765 865.882353a120.470588 120.470588 0 0 0 120.470588-120.470588l-0.120471-2.168471 0.120471-4.005647v-691.802353a90.352941 90.352941 0 0 0-68.367059-87.642353l-331.294118-83.184941a90.352941 90.352941 0 0 0-111.887058 78.757647H331.294118a120.470588 120.470588 0 0 0-120.32 114.447059l-0.150589 6.023529V173.176471a30.117647 30.117647 0 0 0 60.024471 3.523764L271.058824 173.176471v-97.340236a60.235294 60.235294 0 0 1 55.717647-60.054588l4.517647-0.180706 150.588235 0.030118V675.328a90.352941 90.352941 0 0 0 63.186823 86.166588l5.150118 1.475765L720.112941 805.647059H331.294118a60.235294 60.235294 0 0 1-60.084706-55.717647L271.058824 745.411765v-129.204706a30.117647 30.117647 0 0 0-60.024471-3.493647L210.823529 616.207059V745.411765a120.470588 120.470588 0 0 0 114.447059 120.32L331.294118 865.882353h542.117647z m57.615059-111.495529a45.176471 45.176471 0 0 1-53.549177 28.641882L564.886588 704.542118a30.117647 30.117647 0 0 1-22.768941-29.214118v-711.077647a30.117647 30.117647 0 0 1 37.466353-29.214118l331.294118 83.184941a30.117647 30.117647 0 0 1 22.768941 29.214118V739.237647a45.176471 45.176471 0 0 1-1.355294 10.992941zM117.248 261.692235a30.117647 30.117647 0 0 1 44.935529 39.966118l-2.349176 2.620235-89.479529 89.449412 89.479529 89.449412a30.117647 30.117647 0 0 1 2.349176 39.966117l-2.349176 2.620236a30.117647 30.117647 0 0 1-39.966118 2.349176l-2.620235-2.349176L20.359529 428.875294a49.694118 49.694118 0 0 1-2.921411-67.132235l2.921411-3.162353 96.888471-96.888471zM60.235294 426.857412a30.117647 30.117647 0 0 1-3.523765-60.024471l3.523765-0.210823h343.672471a30.117647 30.117647 0 0 1 3.523764 60.02447l-3.523764 0.210824H60.235294z"  horiz-adv-x="1024" />

    
    <glyph glyph-name="icn_xiuxi2x1" unicode="&#59782;" d="M390.354824 829.771294c13.854118 9.487059 34.032941 7.499294 45.056-4.457412 26.352941-28.581647 41.682824-54.302118 45.116235-78.215529 4.306824-30.208-1.264941-49.694118-21.323294-79.450353l-4.517647-6.535529c-1.505882-2.138353-12.589176-17.197176-16.926118-23.43153l-1.174588-1.716706c-7.981176-12.137412-11.053176-21.504-11.053177-37.165176 0-15.570824 8.944941-30.659765 28.973177-46.230588 13.131294-10.24 14.155294-27.708235 2.288941-39.002353-11.866353-11.294118-32.135529-12.197647-45.296941-1.987765C378.819765 537.027765 361.411765 566.392471 361.411765 598.799059c0 25.6 6.113882 44.242824 19.425882 64.421647l2.981647 4.336941c5.601882 7.951059 15.299765 21.142588 16.082824 22.287059 16.865882 23.792941 19.606588 32.045176 16.986353 50.507294-1.746824 12.047059-12.016941 29.274353-31.713883 50.627765-10.992941 11.956706-8.673882 29.304471 5.180236 38.791529zM752.941176 474.352941a60.235294 60.235294 0 0 0 60.235295-60.235294v-6.234353a165.797647 165.797647 0 0 0 210.823529-159.412706 165.647059 165.647059 0 0 0-226.575059-154.081882A286.208 286.208 0 0 0 527.058824-97.882353h-210.82353A286.117647 286.117647 0 0 0 30.117647 188.235294V414.117647a60.235294 60.235294 0 0 0 60.235294 60.235294z m0-60.235294H90.352941v-225.882353a225.882353 225.882353 0 0 1 225.882353-225.882353h210.82353a225.882353 225.882353 0 0 1 225.882352 225.882353V414.117647z m105.411765-60.235294c-15.872 0-31.201882-3.493647-45.17647-10.149647V188.235294c0-11.504941-0.692706-22.829176-1.987765-34.002823A105.411765 105.411765 0 1 1 858.352941 353.882353zM601.660235 829.771294c13.793882 9.487059 33.852235 7.499294 44.815059-4.457412 26.202353-28.581647 41.472-54.302118 44.875294-78.215529 4.276706-30.208-1.264941-49.694118-21.202823-79.450353l-4.517647-6.535529c-2.710588-3.885176-15.510588-21.202824-18.31153-25.359059-8.192-12.257882-11.294118-21.504-11.294117-36.954353 0-15.480471 9.005176-30.509176 29.244235-46.08 13.161412-10.149647 14.336-27.587765 2.650353-38.972235-11.715765-11.414588-31.864471-12.438588-45.025883-2.288942-33.039059 25.419294-50.657882 54.844235-50.657882 87.341177 0 25.6 6.294588 44.272941 19.877647 64.63247l5.360941 7.529412c5.300706 7.378824 12.257882 16.835765 13.70353 18.853647 16.745412 23.792941 19.486118 32.075294 16.865882 50.537412-1.716706 12.047059-11.926588 29.274353-31.533176 50.627765-10.932706 11.956706-8.643765 29.304471 5.150117 38.791529zM149.383529 829.771294c13.854118 9.487059 34.032941 7.499294 45.056-4.457412 26.383059-28.581647 41.712941-54.302118 45.116236-78.215529 4.336941-30.208-1.234824-49.694118-21.323294-79.450353l-21.38353-29.936941-1.204706-1.716706c-7.951059-12.137412-11.023059-21.504-11.023059-37.195294 0-15.600941 8.944941-30.689882 28.912942-46.260706 13.161412-10.24 14.155294-27.708235 2.258823-39.002353-11.866353-11.294118-32.165647-12.167529-45.296941-1.927529C137.848471 537.027765 120.470588 566.422588 120.470588 598.799059c0 23.009882 4.939294 40.448 15.600941 58.368l3.764706 6.023529c3.855059 5.872941 18.311529 25.539765 19.064471 26.624 16.865882 23.792941 19.636706 32.075294 16.986353 50.537412-1.716706 12.047059-12.016941 29.274353-31.713883 50.627765-11.023059 11.956706-8.704 29.304471 5.180236 38.791529z"  horiz-adv-x="1024" />

    
    <glyph glyph-name="icn_light_group_12x1" unicode="&#59766;" d="M686.545455 171.869091V139.636364a174.545455 174.545455 0 0 0-349.09091 0v32.232727C393.192727 142.615273 451.374545 128 512 128c60.625455 0 118.807273 14.615273 174.545455 43.869091zM512 500.363636m-372.363636 0a372.363636 372.363636 0 1 1 744.727272 0 372.363636 372.363636 0 1 1-744.727272 0Z"  horiz-adv-x="1024" />

    
    <glyph glyph-name="icn_light_group_22x" unicode="&#59765;" d="M512 849.454545c205.661091 0 372.363636-166.702545 372.363636-372.363636s-166.702545-372.363636-372.363636-372.363636S139.636364 271.429818 139.636364 477.090909 306.338909 849.454545 512 849.454545zM686.545455 101.794909A159.976727 159.976727 0 0 0 526.568727-58.181818h-29.137454a159.976727 159.976727 0 0 0-159.976728 159.976727A366.545455 366.545455 0 0 1 512 58.181818c61.672727 0 119.854545 14.545455 174.545455 43.613091z"  horiz-adv-x="1024" />

    
    <glyph glyph-name="icn_curtain_group_12x" unicode="&#59754;" d="M323.421091 704.930909v-606.324364a80.849455 80.849455 0 0 0-80.849455-80.849454H161.722182a80.849455 80.849455 0 0 0-80.826182 80.849454V704.907636h242.501818z m619.776 0v-606.324364a80.849455 80.849455 0 0 0-80.826182-80.849454h-80.849454a80.849455 80.849455 0 0 0-80.849455 80.849454V704.907636h242.525091zM983.621818 826.181818a40.424727 40.424727 0 0 0 0-80.849454H40.471273a40.424727 40.424727 0 1 0 0 80.849454h943.150545z"  horiz-adv-x="1024" />

    
    <glyph glyph-name="icn_add_temperature_setting2x" unicode="&#59755;" d="M512 896c29.184 0 53.248-23.267556 56.490667-53.191111L568.888889 835.697778V440.888889h394.865778C997.034667 440.888889 1024 415.402667 1024 384c0-29.184-23.267556-53.248-53.191111-56.490667L963.697778 327.111111H568.888889v-394.865778C568.888889-101.034667 543.402667-128 512-128c-29.184 0-53.248 23.267556-56.490667 53.191111L455.111111-67.697778V327.111111H60.245333C26.965333 327.111111 0 352.597333 0 384c0 29.184 23.267556 53.248 53.191111 56.490667L60.302222 440.888889H455.111111V835.754667C455.111111 869.034667 480.597333 896 512 896z"  horiz-adv-x="1024" />

    
    <glyph glyph-name="icn_add_zhineng2x" unicode="&#59756;" d="M512 896c282.752 0 512-229.248 512-512s-229.248-512-512-512S0 101.248 0 384 229.248 896 512 896z m0-213.333333a42.666667 42.666667 0 0 1-42.666667-42.666667v-213.333333H256a42.666667 42.666667 0 0 1 0-85.333334h213.333333v-213.333333a42.666667 42.666667 0 0 1 85.333334 0v213.333333h213.333333a42.666667 42.666667 0 0 1 0 85.333334h-213.333333V640a42.666667 42.666667 0 0 1-42.666667 42.666667z"  horiz-adv-x="1024" />

    
    <glyph glyph-name="icn_air_conditioning_group_12x" unicode="&#59757;" d="M907.636364 733.090909a69.818182 69.818182 0 0 0 69.818181-69.818182v-465.454545a69.818182 69.818182 0 0 0-69.818181-69.818182H116.363636a69.818182 69.818182 0 0 0-69.818181 69.818182V663.272727a69.818182 69.818182 0 0 0 69.818181 69.818182h791.272728z m-69.818182-418.909091H186.181818a46.545455 46.545455 0 1 1 0-93.090909h651.636364a46.545455 46.545455 0 1 1 0 93.090909zM510.138182 81.454545c18.850909 0 34.141091-15.290182 34.141091-34.14109v-36.445091c0-18.850909-15.266909-34.141091-34.117818-34.141091h-1.559273c-18.850909 0-34.141091 15.290182-34.141091 34.141091v36.445091c0 18.850909 15.290182 34.141091 34.141091 34.14109h1.559273z m-161.419637-6.632727l1.326546-0.768c16.337455-9.425455 21.922909-30.301091 12.497454-46.638545l-18.222545-31.557818a34.141091 34.141091 0 0 0-46.638545-12.497455l-1.326546 0.768a34.141091 34.141091 0 0 0-12.497454 46.638545l18.222545 31.557819a34.141091 34.141091 0 0 0 46.638545 12.497454z m367.941819-12.497454l18.245818-31.557819a34.141091 34.141091 0 0 0-12.497455-46.638545l-1.326545-0.768a34.141091 34.141091 0 0 0-46.638546 12.497455l-18.222545 31.557818a34.141091 34.141091 0 0 0 12.497454 46.638545l1.326546 0.768a34.141091 34.141091 0 0 0 46.638545-12.497454z"  horiz-adv-x="1024" />

    
    <glyph glyph-name="icn_subtract_temperature_setting2x" unicode="&#59758;" d="M963.754667 440.888889C997.034667 440.888889 1024 415.402667 1024 384c0-29.184-23.267556-53.248-53.191111-56.490667L963.697778 327.111111H60.302222C26.965333 327.111111 0 352.597333 0 384c0 29.184 23.267556 53.248 53.191111 56.490667L60.302222 440.888889H963.697778z"  horiz-adv-x="1024" />

    
    <glyph glyph-name="icn_light_group_12x" unicode="&#59759;" d="M337.454545 318.836364m174.545455 0l0 0q174.545455 0 174.545455-174.545455l0-4.654545q0-174.545455-174.545455-174.545455l0 0q-174.545455 0-174.545455 174.545455l0 4.654545q0 174.545455 174.545455 174.545455ZM512 500.363636m-372.363636 0a372.363636 372.363636 0 1 1 744.727272 0 372.363636 372.363636 0 1 1-744.727272 0Z"  horiz-adv-x="1024" />

    
    <glyph glyph-name="icn_wwitch_group_nor2x" unicode="&#59760;" d="M861.090909 756.363636a69.818182 69.818182 0 0 0 69.818182-69.818181v-605.09091a69.818182 69.818182 0 0 0-69.818182-69.818181H162.909091a69.818182 69.818182 0 0 0-69.818182 69.818181V686.545455a69.818182 69.818182 0 0 0 69.818182 69.818181h698.181818zM488.727273 477.090909H162.909091v-395.636364h325.818182V477.090909z m372.363636 0H558.545455v-395.636364h302.545454V477.090909z m0 209.454546H162.909091v-139.636364h698.181818V686.545455z"  horiz-adv-x="1024" />

    
    <glyph glyph-name="icn_edit_zhineng2x" unicode="&#59761;" d="M540.672 768a42.666667 42.666667 0 0 0 4.949333-85.034667L540.672 682.666667H213.333333v-597.333334h597.333334v320a42.666667 42.666667 0 0 0 85.034666 4.992L896 405.333333V85.333333a85.333333 85.333333 0 0 0-78.933333-85.12L810.666667 0H213.333333a85.333333 85.333333 0 0 0-85.12 78.933333L128 85.333333V682.666667a85.333333 85.333333 0 0 0 78.933333 85.12L213.333333 768h327.338667z m342.826667-12.501333a42.666667 42.666667 0 0 0 3.541333-56.32l-3.541333-4.010667-469.333334-469.333333a42.666667 42.666667 0 0 0-63.872 56.32l3.541334 4.010666 469.333333 469.333334a42.666667 42.666667 0 0 0 60.330667 0z"  horiz-adv-x="1024" />

    
    <glyph glyph-name="icn_delete_zhineng2x" unicode="&#59762;" d="M640 853.333333a85.333333 85.333333 0 0 0 85.12-78.933333L725.333333 768v-42.666667h213.333334a42.666667 42.666667 0 0 0 42.368-37.674666L981.333333 682.666667a42.666667 42.666667 0 0 0-37.674666-42.368L938.666667 640h-45.269334l-35.157333-562.645333a128 128 0 0 0-120.32-119.808l-7.424-0.213334H293.546667A128 128 0 0 0 166.4 69.930667l-0.682667 7.424L130.56 640H85.333333a42.666667 42.666667 0 0 0-4.992 85.034667L85.333333 725.333333h213.333334V768a85.333333 85.333333 0 0 0 78.933333 85.12L384 853.333333h256z m0-85.333333H384v-64a64 64 0 0 0-57.856-63.701333L320 640H216.064l34.858667-557.312a42.666667 42.666667 0 0 1 37.802666-39.765333L293.546667 42.666667H730.453333a42.666667 42.666667 0 0 1 42.026667 35.285333l0.554667 4.693333L807.893333 640H704a64 64 0 0 0-63.701333 57.856L640 704V768z m-213.333333-213.333333a42.666667 42.666667 0 0 0 42.666666-42.666667v-298.666667a42.666667 42.666667 0 0 0-85.333333 0V512a42.666667 42.666667 0 0 0 42.666667 42.666667z m170.666666 0a42.666667 42.666667 0 0 0 42.666667-42.666667v-298.666667a42.666667 42.666667 0 0 0-85.333333 0V512a42.666667 42.666667 0 0 0 42.666666 42.666667z"  horiz-adv-x="1024" />

    
    <glyph glyph-name="icn_socket_group_12x" unicode="&#59763;" d="M512 849.454545c231.354182 0 418.909091-187.554909 418.909091-418.90909v-69.818182c0-231.354182-187.554909-418.909091-418.909091-418.909091S93.090909 129.373091 93.090909 360.727273v69.818182c0 231.354182 187.554909 418.909091 418.909091 418.90909z m181.597091-476.25309a40.424727 40.424727 0 0 1-49.710546-13.032728l-30.836363-42.752a27.438545 27.438545 0 0 1 10.728727-40.96c17.570909-8.122182 38.4-2.653091 49.733818 13.032728l30.836364 42.752a27.438545 27.438545 0 0 1-10.752 40.96z m-336.756364-13.032728a40.424727 40.424727 0 0 1-49.710545 13.032728 27.438545 27.438545 0 0 1-10.752-40.96l30.836363-42.752a40.424727 40.424727 0 0 1 49.733819-13.032728 27.438545 27.438545 0 0 1 10.728727 40.96zM500.363636 535.272727A34.909091 34.909091 0 0 1 465.454545 500.363636v-34.909091a34.909091 34.909091 0 0 1 69.818182 0V500.363636a34.909091 34.909091 0 0 1-34.909091 34.909091z"  horiz-adv-x="1024" />

    
    <glyph glyph-name="icn_detail_timing2x" unicode="&#59764;" d="M604.117333 832.725333a41.728 41.728 0 0 0 48.341334 18.688l5.461333-1.749333a460.117333 460.117333 0 0 0 155.136-90.026667l15.573333-14.208c14.506667-13.610667 18.304-35.84 9.216-53.845333a117.461333 117.461333 0 0 1 2.261334-109.909333 110.250667 110.250667 0 0 1 67.754666-53.418667l8.789334-1.92c5.802667-1.28 11.989333-1.664 18.176-1.664 14.592 0 27.477333-9.386667 32.682666-23.210667l1.450667-4.778666 2.56-11.605334a522.965333 522.965333 0 0 0 3.498667-182.485333l-3.498667-19.626667-2.56-11.648a35.413333 35.413333 0 0 0-34.133333-27.989333c-4.138667 0-8.234667-0.170667-12.245334-0.682667l-7.168-1.237333c-30.464-5.461333-58.368-25.002667-75.306666-55.04a117.461333 117.461333 0 0 1-2.261334-109.952c9.130667-18.048 5.333333-40.192-9.216-53.845333l-3.456-3.157334a462.165333 462.165333 0 0 0-151.68-95.445333l-15.573333-5.632-5.461333-1.792a41.898667 41.898667 0 0 0-48.341334 18.730667 107.093333 107.093333 0 0 1-8.490666 11.989333 106.453333 106.453333 0 0 1-83.626667 40.96c-33.706667 0-64-16-84.053333-40.96-3.029333-3.712-5.845333-7.68-8.405334-11.818667a41.728 41.728 0 0 0-49.493333-18.261333l-4.394667 1.621333a460.117333 460.117333 0 0 0-155.136 90.026667l-15.402666 14.08a45.781333 45.781333 0 0 0-11.434667 48.768l2.133333 5.034667a117.461333 117.461333 0 0 1-2.346666 109.653333 109.098667 109.098667 0 0 1-75.52 55.168 93.44 93.44 0 0 1-19.2 1.792 34.986667 34.986667 0 0 0-33.621334 27.52 380.586667 380.586667 0 0 0-2.645333 12.117333 522.965333 522.965333 0 0 0 2.645333 214.186667 34.901333 34.901333 0 0 0 33.621334 27.52c6.4 0 12.8 0.426667 19.2 1.792A109.098667 109.098667 0 0 1 183.466667 581.674667a117.461333 117.461333 0 0 1 2.346666 109.653333 45.738667 45.738667 0 0 0 9.301334 53.76l3.285333 3.072a462.165333 462.165333 0 0 0 151.68 95.445333l19.968 7.210667a41.813333 41.813333 0 0 0 49.493333-18.261333c2.56-4.138667 5.376-8.106667 8.405334-11.818667 20.053333-24.96 50.346667-40.96 84.053333-40.96s64 16 83.626667 40.96a107.093333 107.093333 0 0 1 8.490666 11.989333z m44.714667-47.786666l-2.901333-3.84A170.410667 170.410667 0 0 0 512 715.818667c-49.237333 0-95.189333 21.333333-127.488 57.301333l-6.314667 7.381333-3.2 4.096-3.157333-1.152a397.568 397.568 0 0 1-118.357333-71.68l-4.778667-4.309333 0.554667-1.28 2.773333-7.338667a181.248 181.248 0 0 0-12.458667-147.968 172.885333 172.885333 0 0 0-109.397333-85.034666l-9.173333-1.962667-7.552-1.28-1.28-7.296c-2.730667-17.493333-4.48-35.328-5.12-53.248L106.666667 384c0-24.064 1.877333-47.872 5.504-71.168l1.28-7.253333 6.357333-1.152a172.8 172.8 0 0 0 114.645333-78.506667l4.949334-8.533333a181.589333 181.589333 0 0 0 12.501333-148.522667l-3.2-8.277333 5.12-4.608A398.506667 398.506667 0 0 1 372.906667-15.786667l2.090666-0.725333 3.029334 3.925333a172.16 172.16 0 0 0 124.16 64.554667l9.770666 0.256c49.450667 0 95.573333-21.546667 127.189334-57.258667l6.144-7.338666 3.456-4.48 2.944 1.024a398.933333 398.933333 0 0 1 119.04 72.32l4.181333 3.797333-0.597333 1.365333-2.816 7.552a181.632 181.632 0 0 0 12.8 148.565334c24.32 43.093333 64.341333 73.642667 107.861333 84.138666l11.008 2.346667 7.296 1.28 1.28 7.253333c2.773333 17.493333 4.522667 35.285333 5.205333 53.205334L917.333333 384c0 24.064-1.877333 47.872-5.376 70.528l-1.450666 7.893333-7.850667 1.493334-7.850667 1.621333a173.525333 173.525333 0 0 0-105.557333 76.544l-5.12 8.533333a181.589333 181.589333 0 0 0-12.501333 148.48l3.285333 8.704-5.12 4.650667a396.330667 396.330667 0 0 1-117.034667 71.04l-3.925333 1.450667zM512 544a160 160 0 1 1 0-320 160 160 0 0 1 0 320z m0-64a96 96 0 1 0 0-192 96 96 0 0 0 0 192z"  horiz-adv-x="1024" />

    
    <glyph glyph-name="icn_rubber_nor2x" unicode="&#59752;" d="M527.086933 748.270933a85.333333 85.333333 0 0 0 116.565334 3.822934l4.096-3.822934 260.642133-260.642133a85.333333 85.333333 0 0 0 0.341333-120.32l-230.980266-233.745067-100.283734-99.908266h234.496c44.100267 0 45.431467-64.2048 3.9936-68.096l-4.027733-0.2048H336.930133a136.533333 136.533333 0 0 0-96.4608 39.936l-167.936 167.662933c-31.232 31.1296-33.518933 80.827733-4.573866 115.882667l4.437333 4.8128zM249.6512 374.272l-130.048-130.116267a17.032533 17.032533 0 0 1-0.7168-20.650666l1.877333-2.218667 167.936-167.697067a68.266667 68.266667 0 0 1 48.2304-19.968h143.803734l54.852266 54.6816-285.934933 285.969067z m349.832533 325.7344a17.066667 17.066667 0 0 1-24.132266 0l-277.435734-277.469867 286.037334-286.037333 45.431466 45.226667 230.8096 233.5744a17.066667 17.066667 0 0 1-0.068266 24.064z"  horiz-adv-x="1024" />

    
    <glyph glyph-name="icn_clean_nor2x" unicode="&#59753;" d="M759.466667 418.133333a102.4 102.4 0 0 0 101.1712-86.6304l54.818133-351.8464A34.133333 34.133333 0 0 0 881.732267-59.733333H142.267733a34.133333 34.133333 0 0 0-33.723733 39.389866l54.818133 351.8464A102.4 102.4 0 0 0 264.533333 418.133333h494.933334z m0-68.266666H264.533333a34.133333 34.133333 0 0 1-32.904533-25.122134l-0.8192-3.754666L182.101333 8.533333h659.7632l-48.674133 312.456534a34.133333 34.133333 0 0 1-29.9008 28.672L759.466667 349.866667zM512 827.733333a102.4 102.4 0 0 0 102.229333-96.392533L614.4 725.333333v-346.589866h-68.266667V725.333333a34.133333 34.133333 0 0 1-68.027733 3.9936L477.866667 725.333333v-346.589866h-68.266667V725.333333a102.4 102.4 0 0 0 102.4 102.4zM375.466667 179.2c17.6128 0 31.880533-14.267733 31.880533-31.880533l-0.068267-2.184534L393.216-59.733333h-68.266667l14.062934 204.868266A36.522667 36.522667 0 0 0 375.466667 179.2z m152.917333 0a31.880533 31.880533 0 0 0 31.778133-34.065067L546.133333-59.733333h-68.266666l14.0288 204.868266A36.522667 36.522667 0 0 0 528.384 179.2zM682.666667 179.2a34.133333 34.133333 0 0 0 34.133333-34.133333v-204.8h-68.266667v204.8a34.133333 34.133333 0 0 0 34.133334 34.133333z"  horiz-adv-x="1024" />

    
    <glyph glyph-name="icn_my_feedback2x" unicode="&#59751;" d="M810.666667 768a85.333333 85.333333 0 0 0 85.333333-85.333333v-512a85.333333 85.333333 0 0 0-85.333333-85.333334h-170.666667l-93.866667-125.141333a42.666667 42.666667 0 0 0-68.266666 0L384 85.333333H213.333333a85.333333 85.333333 0 0 0-85.333333 85.333334V682.666667a85.333333 85.333333 0 0 0 85.333333 85.333333h597.333334z m-64-405.333333h-469.333334a21.333333 21.333333 0 0 1-21.333333-21.333334v-42.666666a21.333333 21.333333 0 0 1 21.333333-21.333334h469.333334a21.333333 21.333333 0 0 1 21.333333 21.333334v42.666666a21.333333 21.333333 0 0 1-21.333333 21.333334z m-128 234.666666h-341.333334a21.333333 21.333333 0 0 1-21.333333-21.333333v-42.666667a21.333333 21.333333 0 0 1 21.333333-21.333333h341.333334a21.333333 21.333333 0 0 1 21.333333 21.333333v42.666667a21.333333 21.333333 0 0 1-21.333333 21.333333z"  horiz-adv-x="1024" />

    
    <glyph glyph-name="icn_add_desktop2x" unicode="&#59750;" d="M768 896a128 128 0 0 0 128-128v-768a128 128 0 0 0-128-128H256a128 128 0 0 0-128 128V768a128 128 0 0 0 128 128h512z m0-64h-96l-20.224-40.405333a42.666667 42.666667 0 0 0-38.144-23.594667H410.368a42.666667 42.666667 0 0 0-38.144 23.594667L352 832H256a64 64 0 0 1-63.701333-57.856L192 768v-768a64 64 0 0 1 57.856-63.701333L256-64h512a64 64 0 0 1 63.701333 57.856L832 0V768a64 64 0 0 1-57.856 63.701333L768 832zM554.666667 554.666667v-128h128v-85.333334h-128.042667L554.666667 213.333333h-85.333334l-0.042666 128H341.333333v85.333334h128V554.666667h85.333334z"  horiz-adv-x="1024" />

    
    <glyph glyph-name="icn_home_head_search_nor_2x" unicode="&#59745;" d="M465.454545 802.909091a325.818182 325.818182 0 0 0 245.294546-540.206546l157.416727-157.370181a46.545455 46.545455 0 1 0-65.861818-65.861819l-162.350545 162.443637A325.818182 325.818182 0 1 0 465.454545 802.909091z m0-93.090909a232.727273 232.727273 0 1 1 0-465.454546 232.727273 232.727273 0 0 1 0 465.454546z"  horiz-adv-x="1024" />

    
    <glyph glyph-name="bar_my2x" unicode="&#59746;" d="M522.24 855.04a215.04 215.04 0 1 0 0-430.08 215.04 215.04 0 0 0 0 430.08zM307.2 363.52h409.6a204.8 204.8 0 0 0 204.8-204.8v-204.8a40.96 40.96 0 0 0-40.96-40.96h-737.28a40.96 40.96 0 0 0-40.96 40.96v204.8a204.8 204.8 0 0 0 204.8 204.8z"  horiz-adv-x="1024" />

    
    <glyph glyph-name="bar_camera2x" unicode="&#59747;" d="M273.69472 141.39392a53.248 53.248 0 0 0 13.80352-5.57056c67.50208-38.912 142.336-58.40896 224.50176-58.40896 90.80832 0 166.2976 17.8176 226.5088 53.41184a53.248 53.248 0 0 0 78.88896-33.3824l35.84-149.2992a45.056 45.056 0 0 0-43.8272-55.58272H214.75328a45.056 45.056 0 0 0-43.70432 55.9104l38.13376 154.0096a53.248 53.248 0 0 0 64.512 38.912zM512 875.39712a368.64 368.64 0 1 0 0-737.28 368.64 368.64 0 0 0 0 737.28z m0-174.4896a194.1504 194.1504 0 1 1 0-388.21888 194.1504 194.1504 0 0 1 0 388.21888z m0-111.73888a82.3296 82.3296 0 1 0 0-164.74112 82.3296 82.3296 0 0 0 0 164.74112z"  horiz-adv-x="1024" />

    
    <glyph glyph-name="icn_setting2x" unicode="&#59748;" d="M605.090909 802.909091a186.274909 186.274909 0 0 0 180.317091-139.636364H884.363636a46.545455 46.545455 0 0 0 5.445819-92.765091L884.363636 570.181818h-98.955636a186.274909 186.274909 0 0 0-360.634182 0H139.636364a46.545455 46.545455 0 0 0-5.445819 92.765091L139.636364 663.272727h285.137454C445.44 743.563636 518.330182 802.909091 605.090909 802.909091z m0-93.090909a93.090909 93.090909 0 1 1 0-186.181818 93.090909 93.090909 0 0 1 0 186.181818zM418.909091 384a186.274909 186.274909 0 0 1-180.317091-139.636364H139.636364a46.545455 46.545455 0 0 1-5.445819-92.765091L139.636364 151.272727h98.955636a186.274909 186.274909 0 0 1 360.634182 0H884.363636a46.545455 46.545455 0 0 1 5.445819 92.765091L884.363636 244.363636h-285.137454A186.274909 186.274909 0 0 1 418.909091 384z m0-93.090909a93.090909 93.090909 0 1 0 0-186.181818 93.090909 93.090909 0 0 0 0 186.181818z"  horiz-adv-x="1024" />

    
    <glyph glyph-name="bar_new2x" unicode="&#59749;" d="M860.16 793.6a81.92 81.92 0 0 0 81.92-81.92v-521.70752a81.92 81.92 0 0 0-81.92-81.92H325.79584L146.2272-16.384A40.96 40.96 0 0 0 81.92 17.28512V711.68a81.92 81.92 0 0 0 81.92 81.92h696.32zM296.96 491.9296a51.2 51.2 0 1 1 0-102.4 51.2 51.2 0 0 1 0 102.4z m215.04 0a51.2 51.2 0 1 1 0-102.4 51.2 51.2 0 0 1 0 102.4z m215.04 0a51.2 51.2 0 1 1 0-102.4 51.2 51.2 0 0 1 0 102.4z"  horiz-adv-x="1024" />

    
    <glyph glyph-name="icn_head_porlrait2x" unicode="&#59744;" d="M512 384m-512 0a512 512 0 1 1 1024 0 512 512 0 1 1-1024 0ZM512 347.52c87.466667 0 120.661333-19.626667 173.568-47.061333 52.906667-27.434667 82.432-66.56 82.432-103.424 0-73.344-114.602667-98.56-256-98.56s-256 25.216-256 98.56c0 31.488 15.146667 61.568 69.546667 97.322666 54.314667 35.797333 98.986667 53.162667 186.453333 53.162667z m0 321.962667a121.258667 121.258667 0 1 0 0-242.517334 121.258667 121.258667 0 0 0 0 242.517334z"  horiz-adv-x="1024" />

    
    <glyph glyph-name="icn_department_address_042x" unicode="&#59742;" d="M853.333333 469.333333a85.333333 85.333333 0 0 0 85.12-78.933333L938.666667 384v-128h64a21.333333 21.333333 0 0 0 21.333333-21.333333v-298.666667a21.333333 21.333333 0 0 0-21.333333-21.333333h-213.333334a21.333333 21.333333 0 0 0-21.333333 21.333333v298.666667a21.333333 21.333333 0 0 0 21.333333 21.333333H853.333333v128H170.666667v-128h64a21.333333 21.333333 0 0 0 21.333333-21.333333v-298.666667a21.333333 21.333333 0 0 0-21.333333-21.333333h-213.333334a21.333333 21.333333 0 0 0-21.333333 21.333333v298.666667a21.333333 21.333333 0 0 0 21.333333 21.333333H85.333333v128a85.333333 85.333333 0 0 0 78.933334 85.12L170.666667 469.333333h682.666666z m-234.666666-213.333333a21.333333 21.333333 0 0 0 21.333333-21.333333v-298.666667a21.333333 21.333333 0 0 0-21.333333-21.333333h-213.333334a21.333333 21.333333 0 0 0-21.333333 21.333333v298.666667a21.333333 21.333333 0 0 0 21.333333 21.333333h213.333334z m0 597.333333a42.666667 42.666667 0 0 0 42.666666-42.666666v-170.666667a42.666667 42.666667 0 0 0-42.666666-42.666667H384a42.666667 42.666667 0 0 0-42.666667 42.666667V810.666667a42.666667 42.666667 0 0 0 42.666667 42.666666h234.666667z"  horiz-adv-x="1024" />

    
    <glyph glyph-name="icn_department_address_032x" unicode="&#59743;" d="M512 384m-512 0a512 512 0 1 1 1024 0 512 512 0 1 1-1024 0ZM739.541333 483.541333c29.994667 0 54.613333-23.210667 56.746667-52.608l0.170667-4.266666-0.042667-128h35.584a21.333333 21.333333 0 0 0 21.333333-21.333334v-128a21.333333 21.333333 0 0 0-21.333333-21.333333h-128a21.333333 21.333333 0 0 0-21.333333 21.333333v128a21.333333 21.333333 0 0 0 21.333333 21.333334h35.541333v128H284.458667l-0.042667-128H320a21.333333 21.333333 0 0 0 21.333333-21.333334v-128a21.333333 21.333333 0 0 0-21.333333-21.333333h-128a21.333333 21.333333 0 0 0-21.333333 21.333333v128a21.333333 21.333333 0 0 0 21.333333 21.333334h35.541333v128c0 29.994667 23.210667 54.570667 52.650667 56.746666l4.266667 0.128h455.082666zM576 298.666667a21.333333 21.333333 0 0 0 21.333333-21.333334v-128a21.333333 21.333333 0 0 0-21.333333-21.333333h-128a21.333333 21.333333 0 0 0-21.333333 21.333333v128a21.333333 21.333333 0 0 0 21.333333 21.333334h128z m-7.125333 440.874666a42.666667 42.666667 0 0 0 42.666666-42.666666v-85.333334a42.666667 42.666667 0 0 0-42.666666-42.666666h-128a42.666667 42.666667 0 0 0-42.666667 42.666666v85.333334a42.666667 42.666667 0 0 0 42.666667 42.666666h128z"  horiz-adv-x="1024" />

    
    <glyph glyph-name="icn_add_members2x" unicode="&#59741;" d="M576.597333 426.666667a341.205333 341.205333 0 0 1-175.914666-298.666667 340.48 340.48 0 0 1 115.626666-256L128-127.914667a128 128 0 0 0-128 128v149.333334A277.333333 277.333333 0 0 0 277.333333 426.666667h299.264zM768 384a256 256 0 1 0 0-512 256 256 0 0 0 0 512z m21.333333-85.333333h-42.666666a21.333333 21.333333 0 0 1-20.992-17.493334L725.333333 277.333333V170.666667h-106.666666a21.333333 21.333333 0 0 1-20.992-17.493334L597.333333 149.333333v-42.666666a21.333333 21.333333 0 0 1 17.493334-20.992l3.84-0.341334h106.624L725.333333-21.333333a21.333333 21.333333 0 0 1 17.493334-20.992l3.84-0.341334h42.666666a21.333333 21.333333 0 0 1 20.992 17.493334L810.666667-21.333333l-0.042667 106.666666H917.333333a21.333333 21.333333 0 0 1 20.992 17.493334L938.666667 106.666667v42.666666a21.333333 21.333333 0 0 1-17.493334 20.992L917.333333 170.666667H810.666667v106.666666a21.333333 21.333333 0 0 1-21.333334 21.333334z m-256 597.333333a192 192 0 1 0 0-384 192 192 0 0 0 0 384z"  horiz-adv-x="1024" />

    
    <glyph glyph-name="icn_add_department2x" unicode="&#59722;" d="M853.333333 426.666667a85.333333 85.333333 0 0 0 85.12-78.933334L938.666667 341.333333v-128h64a21.333333 21.333333 0 0 0 21.333333-21.333333v-298.666667a21.333333 21.333333 0 0 0-21.333333-21.333333h-213.333334a21.333333 21.333333 0 0 0-21.333333 21.333333v298.666667a21.333333 21.333333 0 0 0 21.333333 21.333333H853.333333v128H170.666667v-128h64a21.333333 21.333333 0 0 0 21.333333-21.333333v-298.666667a21.333333 21.333333 0 0 0-21.333333-21.333333h-213.333334a21.333333 21.333333 0 0 0-21.333333 21.333333v298.666667a21.333333 21.333333 0 0 0 21.333333 21.333333H85.333333v128a85.333333 85.333333 0 0 0 78.933334 85.12L170.666667 426.666667h682.666666z m-234.666666-213.333334a21.333333 21.333333 0 0 0 21.333333-21.333333v-298.666667a21.333333 21.333333 0 0 0-21.333333-21.333333h-213.333334a21.333333 21.333333 0 0 0-21.333333 21.333333v298.666667a21.333333 21.333333 0 0 0 21.333333 21.333333h213.333334z m-85.333334 682.666667a21.333333 21.333333 0 0 0 21.333334-21.333333V725.333333h149.333333a21.333333 21.333333 0 0 0 21.333333-21.333333v-42.666667a21.333333 21.333333 0 0 0-21.333333-21.333333H554.666667v-149.333333a21.333333 21.333333 0 0 0-21.333334-21.333334h-42.666666a21.333333 21.333333 0 0 0-21.333334 21.333334V640.042667L320 640a21.333333 21.333333 0 0 0-21.333333 21.333333v42.666667a21.333333 21.333333 0 0 0 21.333333 21.333333l149.333333 0.042667V874.666667a21.333333 21.333333 0 0 0 21.333334 21.333333h42.666666z"  horiz-adv-x="1024" />

    
    <glyph glyph-name="icn_chengyuan_shenhe2x" unicode="&#59724;" d="M559.914667 426.666667A341.248 341.248 0 0 1 384 128a340.48 340.48 0 0 1 115.626667-256.042667L128-128a128 128 0 0 0-128 128v149.333333A277.333333 277.333333 0 0 0 277.333333 426.666667h282.581334zM768 384a256 256 0 1 0 0-512 256 256 0 0 0 0 512z m113.962667-141.013333l-2.986667-2.432-149.76-149.76-75.392 75.392a21.333333 21.333333 0 0 1-27.221333 2.474666l-2.986667-2.474666-30.122667-30.165334a21.333333 21.333333 0 0 1-2.474666-27.221333l2.474666-2.986667 120.661334-120.661333a21.333333 21.333333 0 0 1 27.221333-2.432l2.986667 2.432 194.986666 195.029333a21.333333 21.333333 0 0 1 2.474667 27.221334l-2.474667 2.986666-30.165333 30.165334a21.333333 21.333333 0 0 1-27.221333 2.432zM533.333333 896a192 192 0 1 0 0-384 192 192 0 0 0 0 384z"  horiz-adv-x="1024" />

    
    <glyph glyph-name="icn_app_store2x" unicode="&#59725;" d="M512 896a234.6496 234.6496 0 0 0 234.6496-234.6496l-0.1024 3.8912h64.1024c70.7072 0 128-59.2384 128-132.2496v-528.7936c0-73.0112-57.2928-132.1984-128-132.1984H213.3504c-70.7072 0-128 59.1872-128 132.1984V532.992c0 73.0112 57.2928 132.1984 128 132.1984h64A234.6496 234.6496 0 0 0 512 896z m298.6496-318.9248H213.3504a43.3664 43.3664 0 0 1-42.7008-44.032v-528.8448c0-24.32 19.0976-44.032 42.7008-44.032h597.2992c23.552 0 42.7008 19.712 42.7008 44.032V532.992a43.3664 43.3664 0 0 1-42.7008 44.0832z m-448-72.2944a139.5712 139.5712 0 0 1 139.5712-139.6224h19.5584a139.5712 139.5712 0 0 1 139.5712 139.6224h85.2992a224.9216 224.9216 0 0 0-224.8704-224.9216h-19.5584a224.9216 224.9216 0 0 0-224.8704 224.9216zM512 810.6496a149.3504 149.3504 0 0 1-149.3504-149.2992l0.1024 3.8912h298.496a149.3504 149.3504 0 0 1-140.4928 145.152z"  horiz-adv-x="1024" />

    
    <glyph glyph-name="icn_album2x" unicode="&#59726;" d="M512 896c282.763636 0 512-229.236364 512-512s-229.236364-512-512-512S0 101.236364 0 384 229.236364 896 512 896z m0-23.272727C242.082909 872.727273 23.272727 653.917091 23.272727 384s218.810182-488.727273 488.727273-488.727273 488.727273 218.810182 488.727273 488.727273S781.917091 872.727273 512 872.727273zM418.909091 546.909091a69.818182 69.818182 0 1 0 0-139.636364 69.818182 69.818182 0 0 0 0 139.636364z m0-34.909091a34.909091 34.909091 0 1 1 0-69.818182 34.909091 34.909091 0 0 1 0 69.818182zM585.728 379.857455c47.429818 20.666182 97.885091 26.484364 150.923636 17.524363l9.378909-1.745454 17.128728-3.421091-6.865455-34.210909-17.128727 3.421091c-49.570909 9.937455-95.930182 5.399273-139.52-13.568-43.403636-18.897455-77.730909-51.828364-103.261091-99.374546l-4.189091-8.052364-9.053091-18.176-16.593454 11.706182a160.349091 160.349091 0 0 1-94.789819 30.068364c-27.834182 0-51.106909-5.725091-70.167272-17.035636l-5.12-3.23491-14.475637-9.751272-19.479272 28.974545 14.475636 9.751273c26.065455 17.524364 57.786182 26.205091 94.766545 26.205091 33.629091 0 64.977455-7.819636 93.789091-23.342546l4.538182-2.583272 3.607273 6.167272c26.810182 44.334545 61.789091 76.939636 104.797091 97.396364l7.214545 3.281455zM721.454545 640a46.545455 46.545455 0 0 0 46.545455-46.545455v-418.90909a46.545455 46.545455 0 0 0-46.545455-46.545455H302.545455a46.545455 46.545455 0 0 0-46.545455 46.545455V593.454545a46.545455 46.545455 0 0 0 46.545455 46.545455h418.90909z m0-34.909091H302.545455a11.636364 11.636364 0 0 1-11.450182-9.541818L290.909091 593.454545v-418.90909a11.636364 11.636364 0 0 1 9.541818-11.450182l2.094546-0.186182h418.90909a11.636364 11.636364 0 0 1 11.450182 9.541818L733.090909 174.545455V593.454545a11.636364 11.636364 0 0 1-9.541818 11.450182L721.454545 605.090909z"  horiz-adv-x="1024" />

    
    <glyph glyph-name="icn_edit_add_members2x" unicode="&#59727;" d="M833.04448 767.46752a40.96 40.96 0 0 0 62.38208-52.8384l-3.35872-3.97312-501.59616-521.4208a40.96 40.96 0 0 0-62.38208 52.8384l3.35872 3.93216L833.04448 767.46752zM611.9424 814.08a40.96 40.96 0 0 0 4.79232-81.63328L611.98336 732.16H286.72a122.88 122.88 0 0 1-122.6752-115.67104L163.84 609.28v-450.56a122.88 122.88 0 0 1 115.67104-122.6752L286.72 35.84h450.56a122.88 122.88 0 0 1 122.6752 115.67104L860.16 158.72v297.49248a40.96 40.96 0 0 0 81.63328 4.79232l0.28672-4.79232V158.72a204.8 204.8 0 0 0-195.91168-204.5952L737.28-46.08H286.72a204.8 204.8 0 0 0-204.5952 195.91168L81.92 158.72V609.28a204.8 204.8 0 0 0 195.91168 204.5952L286.72 814.08h325.2224z"  horiz-adv-x="1024" />

    
    <glyph glyph-name="icn_download_address2x" unicode="&#59728;" d="M512 384m-512 0a512 512 0 1 1 1024 0 512 512 0 1 1-1024 0ZM546.909091 640a11.636364 11.636364 0 0 0 11.636364-11.636364V430.545455h44.520727a11.636364 11.636364 0 0 0 5.888-1.605819l1.675636-1.186909a11.636364 11.636364 0 0 0 1.28-16.407272L520.843636 305.105455a11.636364 11.636364 0 0 0-17.687272 0l-91.066182 106.24a11.636364 11.636364 0 0 0 8.843636 19.2H465.454545L465.454545 628.363636a11.636364 11.636364 0 0 0 11.636364 11.636364h69.818182zM330.472727 384v-116.363636a18.618182 18.618182 0 0 1 16.290909-18.478546l2.327273-0.139636h325.818182a18.618182 18.618182 0 0 1 18.478545 16.290909l0.139637 2.327273v116.363636h55.854545v-116.363636a74.472727 74.472727 0 0 0-70.237091-74.356364L674.909091 193.163636H349.090909a74.472727 74.472727 0 0 0-74.356364 70.237091L274.618182 267.636364v116.363636h55.854545z"  horiz-adv-x="1024" />

    
    <glyph glyph-name="icn_flashlight_off2x" unicode="&#59729;" d="M512 896c282.763636 0 512-229.236364 512-512s-229.236364-512-512-512S0 101.236364 0 384 229.236364 896 512 896z m0-23.272727C242.082909 872.727273 23.272727 653.917091 23.272727 384s218.810182-488.727273 488.727273-488.727273 488.727273 218.810182 488.727273 488.727273S781.917091 872.727273 512 872.727273zM370.501818 480.256l27.205818-21.876364-81.989818-101.888h183.435637l-48.197819-207.778909 94.789819 128.698182 28.113454-20.712727-144.267636-195.886546-4.514909-3.421091c-7.121455-5.166545-8.866909-4.514909-20.224-0.325818-5.585455 6.213818-6.725818 7.447273-6.818909 13.056l0.09309 5.166546 57.088 246.295272h-212.386909l127.674182 158.673455z m-67.607273 132.165818l25.972364 23.319273L746.589091 170.891636l-25.972364-23.342545-417.722182 464.872727z m292.77091 109.847273l3.16509-4.142546c2.420364-3.397818 2.699636-5.12 2.56-10.286545l-0.139636-2.885818-50.152727-215.086546h186.647273l-101.073455-138.309818-28.183273 20.619637 60.462546 82.78109H507.112727l44.427637 190.603637-84.247273-96.581818-26.298182 22.970181 129.722182 148.64291c12.008727 7.726545 12.008727 7.726545 24.948364 1.698909z"  horiz-adv-x="1024" />

    
    <glyph glyph-name="icn_default_company_12x" unicode="&#59730;" d="M553.0112 660.48l1.18784-0.07168a10.24 10.24 0 0 0 8.98048-8.97024l0.07168-1.19808-0.02048-522.24H583.68V506.88l153.84576-76.92288c4.46464-2.83648 7.30112-5.6832 8.4992-8.5504 1.03424-2.4576 1.54624-5.85728 1.536-10.21952l-0.04096-2.2528V128h40.96v-30.72H235.52v30.72h40.99072l0.02048 522.24 0.06144 1.19808a10.24 10.24 0 0 0 8.98048 8.97024l1.19808 0.07168h266.24z m133.0176-401.73568h-51.2v-51.2h51.2v51.2z m-296.96 3.56352h-51.2v-49.7152h51.2v49.7152z m112.6912 0h-51.2v-49.7152h51.2v49.7152z m184.27904 98.83648h-51.2v-51.2h51.2v51.2z m-296.96 2.37568h-51.2v-49.7152h51.2V363.52zM501.76 363.52h-51.2v-49.7152h51.2V363.52z m-112.68096 101.21216h-51.2v-49.7152h51.2v49.7152z m112.68096 0h-51.2v-49.7152h51.2v49.7152z m-112.68096 101.21216h-51.2v-49.7152h51.2v49.7152z m112.68096 0h-51.2v-49.7152h51.2v49.7152z"  horiz-adv-x="1024" />

    
    <glyph glyph-name="icn_erweima_add_members2x" unicode="&#59731;" d="M716.8 35.84a20.48 20.48 0 0 0 20.48-20.48v-81.92a20.48 20.48 0 0 0-20.48-20.48h-163.84a20.48 20.48 0 0 0-20.48 20.48v81.92a20.48 20.48 0 0 0 20.48 20.48h163.84z m245.76 0a20.48 20.48 0 0 0 20.48-20.48v-81.92a20.48 20.48 0 0 0-20.48-20.48h-81.92a20.48 20.48 0 0 0-20.48 20.48v81.92a20.48 20.48 0 0 0 20.48 20.48h81.92z m-163.84 163.84a20.48 20.48 0 0 0 20.48-20.48v-81.92a20.48 20.48 0 0 0-20.48-20.48h-81.92a20.48 20.48 0 0 0-20.48 20.48v81.92a20.48 20.48 0 0 0 20.48 20.48h81.92z m-163.84 163.84a20.48 20.48 0 0 0 20.48-20.48v-81.92a20.48 20.48 0 0 0-20.48-20.48h-81.92a20.48 20.48 0 0 0-20.48 20.48v81.92a20.48 20.48 0 0 0 20.48 20.48h81.92z m327.68 0a20.48 20.48 0 0 0 20.48-20.48v-81.92a20.48 20.48 0 0 0-20.48-20.48h-81.92a20.48 20.48 0 0 0-20.48 20.48v81.92a20.48 20.48 0 0 0 20.48 20.48h81.92zM389.12 896h-327.68A61.44 61.44 0 0 1 0 834.56v-327.68A61.44 61.44 0 0 1 61.44 445.44h327.68A61.44 61.44 0 0 1 450.56 506.88v327.68A61.44 61.44 0 0 1 389.12 896zM368.64 814.08v-286.72H81.92V814.08h286.72zM163.84 732.16m20.48 0l81.92 0q20.48 0 20.48-20.48l0-81.92q0-20.48-20.48-20.48l-81.92 0q-20.48 0-20.48 20.48l0 81.92q0 20.48 20.48 20.48ZM921.6 896h-327.68A61.44 61.44 0 0 1 532.48 834.56v-327.68a61.44 61.44 0 0 1 61.44-61.44h327.68A61.44 61.44 0 0 1 983.04 506.88v327.68A61.44 61.44 0 0 1 921.6 896zM901.12 814.08v-286.72h-286.72V814.08h286.72zM696.32 732.16m20.48 0l81.92 0q20.48 0 20.48-20.48l0-81.92q0-20.48-20.48-20.48l-81.92 0q-20.48 0-20.48 20.48l0 81.92q0 20.48 20.48 20.48ZM389.12 363.52h-327.68A61.44 61.44 0 0 1 0 302.08v-327.68A61.44 61.44 0 0 1 61.44-87.04h327.68a61.44 61.44 0 0 1 61.44 61.44v327.68A61.44 61.44 0 0 1 389.12 363.52zM368.64 281.6v-286.72H81.92v286.72h286.72zM163.84 199.68m20.48 0l81.92 0q20.48 0 20.48-20.48l0-81.92q0-20.48-20.48-20.48l-81.92 0q-20.48 0-20.48 20.48l0 81.92q0 20.48 20.48 20.48Z"  horiz-adv-x="1024" />

    
    <glyph glyph-name="icn_phone_add_members2x" unicode="&#59732;" d="M778.24 896a163.84 163.84 0 0 0 163.84-163.84v-696.32a163.84 163.84 0 0 0-163.84-163.84H245.76a163.84 163.84 0 0 0-163.84 163.84V732.16a163.84 163.84 0 0 0 163.84 163.84h532.48z m0-81.92H245.76a81.92 81.92 0 0 1-81.7152-75.776L163.84 732.16v-696.32a81.92 81.92 0 0 1 75.776-81.7152L245.76-46.08h532.48a81.92 81.92 0 0 1 81.7152 75.776L860.16 35.84V732.16a81.92 81.92 0 0 1-75.776 81.7152L778.24 814.08zM409.6 732.16m40.96 0l122.88 0q40.96 0 40.96-40.96l0 0q0-40.96-40.96-40.96l-122.88 0q-40.96 0-40.96 40.96l0 0q0 40.96 40.96 40.96Z"  horiz-adv-x="1024" />

    
    <glyph glyph-name="icn_renzheng_022x" unicode="&#59733;" d="M93.090909 747.147636c69.445818 3.025455 139.636364 14.848 210.525091 35.374546C374.504727 803.002182 443.717818 840.890182 511.162182 896c74.612364-54.644364 144.523636-90.717091 209.733818-108.171636 65.210182-17.408 135.214545-30.999273 210.013091-40.680728v-395.496727c0-201.448727-128.186182-380.602182-318.882909-445.579636L512-128l-101.934545 34.722909A467.921455 467.921455 0 0 0 93.090909 349.649455v397.498181zM230.027636 565.992727h154.344728a46.545455 46.545455 0 0 0 44.311272-32.395636l86.109091-269.777455 84.712728 269.591273a46.545455 46.545455 0 0 0 44.404363 32.581818h150.062546l-68.189091-46.033454-129.256728-343.738182a46.545455 46.545455 0 0 0-43.566545-30.161455H473.693091a46.545455 46.545455 0 0 0-43.426909 29.789091l-132.654546 344.110546-67.584 46.08z"  horiz-adv-x="1024" />

    
    <glyph glyph-name="icn_edit_sao2x" unicode="&#59734;" d="M512 896c282.763636 0 512-229.236364 512-512s-229.236364-512-512-512S0 101.236364 0 384 229.236364 896 512 896z m0-23.272727C242.082909 872.727273 23.272727 653.917091 23.272727 384s218.810182-488.727273 488.727273-488.727273 488.727273 218.810182 488.727273 488.727273S781.917091 872.727273 512 872.727273zM571.810909 634.181818v-34.909091H323.584c-13.847273 0-25.274182-10.472727-26.717091-23.947636l-0.162909-2.932364v-376.785454c0-13.847273 10.472727-25.274182 23.947636-26.717091l2.932364-0.162909h376.785455c13.847273 0 25.274182 10.472727 26.71709 23.947636l0.16291 2.932364V432.919273h34.90909v-237.312a61.789091 61.789091 0 0 0-57.879272-61.672728l-3.909818-0.116363h-376.785455a61.789091 61.789091 0 0 0-61.672727 57.879273l-0.116364 3.909818v376.785454a61.789091 61.789091 0 0 0 57.879273 61.672728l3.909818 0.116363h248.180364zM708.608 605.277091a17.454545 17.454545 0 0 0 27.298909-21.620364l-1.629091-2.024727-267.636363-290.909091a17.454545 17.454545 0 0 0-27.275637 21.620364l1.629091 2.024727 267.636364 290.909091z"  horiz-adv-x="1024" />

    
    <glyph glyph-name="icn_flashlight_on2x" unicode="&#59735;" d="M512 896c282.763636 0 512-229.236364 512-512s-229.236364-512-512-512S0 101.236364 0 384 229.236364 896 512 896z m0-23.272727C242.082909 872.727273 23.272727 653.917091 23.272727 384s218.810182-488.727273 488.727273-488.727273 488.727273 218.810182 488.727273 488.727273S781.917091 872.727273 512 872.727273zM562.548364 716.8L235.310545 319.232l219.29891 2.117818-59.531637-231.214545a29.090909 29.090909 0 0 1 52.084364-23.831273l299.776 432.128h-192.256L605.090909 695.179636a24.436364 24.436364 0 0 1-42.542545 21.597091zM309.829818 354.862545l249.739637 303.36-49.850182-194.699636h170.496L436.968727 112.919273l62.789818 243.781818-189.928727-1.815273z"  horiz-adv-x="1024" />

    
    <glyph glyph-name="icn_pengyouquan_address2x" unicode="&#59736;" d="M512 384m-512 0a512 512 0 1 1 1024 0 512 512 0 1 1-1024 0ZM512.232727 640a267.403636 267.403636 0 0 0 66.443637-8.285091c5.445818-1.815273 10.426182-3.397818 15.639272-4.933818v-181.550546l-177.384727 176.64a260.328727 260.328727 0 0 0 66.397091 16.593455c9.588364 1.024 19.246545 1.536 28.904727 1.536z m180.526546-74.170182c16.128-15.825455 29.416727-33.722182 40.610909-52.922182 2.606545-4.677818 5.469091-9.332364 7.819636-14.242909l-128.930909-128.395636V620.055273a257.768727 257.768727 0 0 0 80.500364-54.225455z m56.506182-87.133091v-0.046545c8.610909-20.736 14.08-43.054545 17.175272-66.397091 1.047273-9.541818 1.582545-19.153455 1.559273-28.788364 0-22.248727-2.978909-44.381091-8.843636-65.861818-1.815273-5.422545-3.374545-10.356364-4.957091-15.546182h-182.295273l177.338182 176.64z m-253.672728-195.560727c7.796364-1.303273 251.066182 0 251.066182 0a256.628364 256.628364 0 0 0-54.458182-80.174545 252.276364 252.276364 0 0 0-53.108363-40.448c-4.933818-2.606545-9.634909-5.445818-14.568728-7.773091l-128.930909 128.372363z m-65.885091 40.168727h-0.046545c4.421818-6.213818 177.105455-177.152 177.105454-177.152a267.869091 267.869091 0 0 0-66.420363-16.593454c-9.588364-1.047273-19.223273-1.559273-28.881455-1.559273-22.341818 0-44.590545 2.978909-66.141091 8.843636-4.957091 1.792-10.402909 3.351273-15.616 4.910546v181.550545z m-18.222545 75.496728c-1.256727-7.517091 0-250.042182 0-250.042182a257.768727 257.768727 0 0 0-80.453818 54.225454 252.043636 252.043636 0 0 0-40.657455 52.898909c-2.583273 4.910545-5.469091 9.611636-7.796363 14.545455l128.907636 128.372364z m-146.874182 51.595636c1.303273 5.469091 4.933818 15.825455 4.933818 15.825454h181.783273l-177.105455-176.64a258.001455 258.001455 0 0 0-16.663272 66.164364c-1.047273 9.541818-1.559273 19.176727-1.559273 28.788364-0.093091 22.225455 2.792727 44.381091 8.587636 65.861818h0.023273z m118.737455 154.600727c4.701091 2.56 9.634909 5.189818 14.336 7.517091l129.163636-128.139636H276.061091c9.029818 21.015273 20.852364 40.727273 35.141818 58.624 6.004364 7.261091 12.264727 14.522182 19.293091 21.527272a244.410182 244.410182 0 0 0 52.852364 40.471273z"  horiz-adv-x="1024" />

    
    <glyph glyph-name="icn_weixin_address2x" unicode="&#59737;" d="M512 384m-512 0a512 512 0 1 1 1024 0 512 512 0 1 1-1024 0ZM818.781091 311.389091c0 78.498909-77.614545 142.429091-164.910546 142.429091C561.338182 453.818182 488.727273 389.888 488.727273 311.389091c0-78.731636 72.634182-142.429091 165.143272-142.429091 19.339636 0 38.912 4.980364 58.251637 9.774545l53.294545-29.556363-14.568727 49.105454c38.888727 29.556364 67.933091 68.933818 67.933091 113.105455z m-218.484364 24.552727c-9.658182 0-19.316364 9.774545-19.316363 19.595637 0 9.751273 9.658182 19.549091 19.316363 19.54909 14.638545 0 24.32-9.797818 24.32-19.54909 0-9.821091-9.681455-19.595636-24.32-19.595637z m106.891637 0c-9.658182 0-19.316364 9.774545-19.316364 19.595637 0 9.751273 9.658182 19.549091 19.316364 19.54909 14.615273 0 24.296727-9.797818 24.296727-19.54909 0-9.821091-9.914182-19.595636-24.296727-19.595637zM608.954182 480.977455c6.213818 0.581818 30.836364 0.930909 44.8-2.443637C640 571.112727 546.350545 640 450.629818 640 343.738182 640 256 559.918545 256 458.007273c0-58.763636 29.090909-107.101091 77.824-144.546909L314.414545 249.018182l68.096 37.655273c24.366545-5.189818 43.985455-10.658909 68.119273-10.65891 4.026182 0 6.539636-0.279273 10.589091 0-1.466182 12.683636-4.887273 77.335273 21.457455 121.902546 27.554909 46.592 69.981091 77.730909 126.277818 83.083636z m-85.480727 68.026181c14.661818 0 24.343273-10.658909 24.343272-26.763636s-9.704727-26.763636-24.343272-26.763636c-14.661818 0-29.300364 10.658909-29.300364 26.763636 0.232727 16.128 14.848 26.763636 29.300364 26.763636z m-136.215273-53.527272c-14.661818 0-29.300364 10.658909-29.300364 26.763636 0 16.128 14.661818 26.786909 29.323637 26.786909s24.366545-10.658909 24.366545-26.763636c0-15.895273-9.704727-26.763636-24.389818-26.763637z"  horiz-adv-x="1024" />

    
    <glyph glyph-name="icn_setting_gongzuotai2x" unicode="&#59738;" d="M708.864 879.5136l118.272-70.656c65.7408-40.9088 72.96-69.2224 37.4784-144.896l-2.56-8.3456c-11.2128-36.096 7.3728-74.24 41.7792-88.4736l7.68-2.6624 10.0864-2.7648c90.4192-12.544 101.632-49.7664 102.4-99.9424v-147.456c0-53.6576-17.2032-103.0656-102.4-106.0864a72.8064 72.8064 0 0 1-60.0576-90.9824l3.072-11.264 5.7856-14.1312c20.6336-52.992 23.1936-90.9312-43.264-130.7136l-118.272-70.656c-64-40.6016-98.816-8.192-139.8784 38.7584l-7.68 6.9632a73.472 73.472 0 0 1-98.6624 0l-7.68-6.9632c-46.848-54.4768-85.9136-69.12-132.7616-43.008L196.864-38.912c-67.2768 37.1712-67.2768 71.1168-37.4784 144.896l3.1744 12.1856a72.6528 72.6528 0 0 1-60.0064 90.0096C13.9264 214.272 0.9216 264.0384 0.0512 308.9408L0 455.68c0 75.4688 37.2736 93.184 102.4 106.0352l9.1648 2.56a72.704 72.704 0 0 1 52.3776 82.688l-1.792 7.5776-2.7648 9.4208c-30.7712 64.2048-21.248 113.5616 37.4784 144.896l118.272 70.656C364.3904 911.36 414.1056 895.0272 455.0144 840.704l4.2496-4.4032c26.2656-27.136 68.608-29.6448 97.792-6.912l6.656 5.888 5.2736 5.4272c41.984 53.9136 86.528 71.5776 139.8784 38.8096z m-39.424-65.8944l-6.144 3.5328c-9.1136 4.352-14.0288 1.2288-29.2352-17.92l-4.4544-5.632-5.4272-6.2976-8.448-8.6016a150.272 150.272 0 0 0-204.5952-2.6624l-7.0656 6.8608-4.2496 4.4032-6.1952 7.2192c-17.92 23.808-24.6784 27.2384-36.1472 20.8896L232.96 741.0176l-6.8096-3.8912c-9.5744-6.144-10.2912-11.3664-2.9184-28.2624l8.1408-17.3568 4.9152-16.9472a149.4016 149.4016 0 0 0-95.7952-181.76l-8.448-2.56-9.1136-2.56L117.248 486.4l-23.8592-4.7104c-15.872-3.4816-16.7936-5.9392-16.6912-18.2272l0.1024-153.088 0.3584-12.032c0.768-10.3424 3.8912-11.6224 19.6096-12.8l11.008-0.7168 6.0416-0.6656a149.504 149.504 0 0 0 124.9792-176.5888l-1.9456-8.5504-3.1744-12.288-3.1232-9.5232-5.4272-12.9536c-12.9024-29.9008-13.1584-24.576 7.0656-35.0208l4.096-2.2016 124.416-74.4448c8.0896-4.4032 11.5712-1.536 30.8736 20.736l5.12 5.9904 6.656 6.8096 7.6288 6.912a150.3232 150.3232 0 0 0 194.304 6.5024l7.68-6.5024 7.6288-6.912 6.144-6.3488 16.896-19.456c10.24-11.6224 12.4928-12.4416 18.7392-8.5504l7.0656 4.608 118.1696 70.656 13.6192 7.7312c6.2976 3.84 7.2192 6.2976 3.7888 15.2064l-11.264 26.2144-3.2768 9.5232-3.072 11.264a149.504 149.504 0 0 0 114.3296 185.7536l8.704 1.536 8.3968 0.7168 10.0352 0.4096c15.872 0.8192 17.92 2.9184 18.2272 18.7904l0.1024 156.3648 0.1536 10.8544c-0.1024 12.1344-3.5328 10.1376-29.8496 13.4144l-6.5024 0.8192-9.6256 1.9968-13.4144 3.6864a149.4528 149.4528 0 0 0-101.7344 178.4832l2.3552 8.4992 2.56 8.3456 3.8912 9.9328 5.888 11.8784c13.1072 25.2416 13.824 18.6368-8.4992 31.5904L669.4912 813.568zM512 588.8a204.8 204.8 0 1 0 0-409.6 204.8 204.8 0 0 0 0 409.6z m0-76.8a128 128 0 1 1 0-256 128 128 0 0 1 0 256z"  horiz-adv-x="1024" />

    
    <glyph glyph-name="icn_weixin_add_members2x" unicode="&#59739;" d="M478.08512 896c135.168 0 205.0048-22.44608 287.9488-75.61216 51.8144-33.1776 90.9312-70.53312 121.97888-114.03264 11.79648-16.54784 26.91072-43.49952 36.12672-63.6928 7.94624-17.48992 14.25408-35.14368 16.95744-47.26784a40.96 40.96 0 0 0-78.6432-22.48704l-1.31072 4.58752a194.39616 194.39616 0 0 1-11.55072 31.17056 364.1344 364.1344 0 0 1-28.2624 50.13504c-24.9856 35.0208-56.5248 65.1264-99.45088 92.61056C651.55072 796.4672 596.74624 814.08 478.08512 814.08 230.4 814.08 81.92 687.39072 81.92 506.88c0-66.60096 26.91072-130.2528 76.30848-182.92736l8.92928-9.216c3.15392-3.11296 19.00544-17.65376 33.1776-30.47424l20.97152-18.75968 24.24832-20.97152-67.42016-132.75136 122.38848 43.45856a40.96 40.96 0 0 0 27.48416-77.16864l-169.73824-60.33408c-11.55072-4.096-24.08448-4.75136-36.00384-1.88416a61.44 61.44 0 0 0-46.77632 69.46816l1.2288 5.57056 3.072 8.192 63.93856 125.91104-32.07168 29.4912-2.048 2.00704C39.40352 325.79584 0 413.65504 0 506.88 0 735.76448 187.76064 896 478.08512 896zM696.32 508.64128c-186.65472 0-327.68-110.592-327.68-277.74976l0.16384-9.95328c5.48864-161.5872 144.5888-267.83744 327.51616-267.83744l45.95712 0.04096 117.30944-70.4512a61.44 61.44 0 0 1 84.29568 21.0944l2.99008 5.7344a61.44 61.44 0 0 1 4.62848 37.4784l-17.77664 92.32384-7.00416-6.144C988.24192 84.62336 1024 155.07456 1024 230.85056c0 165.96992-141.7216 277.74976-327.68 277.74976z m0-81.92c144.384 0 245.76-79.91296 245.76-195.82976 0-47.3088-21.38112-92.40576-60.0064-127.91808l-10.69056-9.4208-6.02112-5.98016a61.44 61.44 0 0 1-14.25408-52.224l11.264-58.7776-84.7872 50.87232a53.248 53.248 0 0 1-27.4432 7.5776H696.32c-145.2032 0-245.76 78.92992-245.76 195.87072s100.5568 195.82976 245.76 195.82976zM348.16 629.76m-61.44 0a61.44 61.44 0 1 1 122.88 0 61.44 61.44 0 1 1-122.88 0ZM634.88 629.76m-61.44 0a61.44 61.44 0 1 1 122.88 0 61.44 61.44 0 1 1-122.88 0ZM624.64 271.36m-51.2 0a51.2 51.2 0 1 1 102.4 0 51.2 51.2 0 1 1-102.4 0ZM788.48 271.36m-51.2 0a51.2 51.2 0 1 1 102.4 0 51.2 51.2 0 1 1-102.4 0Z"  horiz-adv-x="1024" />

    
    <glyph glyph-name="icn_qq_address2x" unicode="&#59740;" d="M512 384m-512 0a512 512 0 1 1 1024 0 512 512 0 1 1-1024 0ZM739.048727 234.496c-11.822545-1.256727-46.08 47.941818-46.08 47.941818 0-28.485818-16.546909-65.675636-52.410182-92.509091 17.291636-4.724364 56.32-17.454545 47.034182-31.301818-7.517091-11.217455-128.907636-7.168-163.933091-3.677091-35.048727-3.490909-156.439273-7.540364-163.956363 3.677091-9.285818 13.870545 29.696 26.554182 47.010909 31.278546-35.84 26.856727-52.433455 64.046545-52.433455 92.555636 0 0-34.210909-49.221818-46.08-47.941818-5.492364 0.581818-12.753455 26.926545 9.611637 90.624 10.542545 30.021818 22.574545 54.970182 41.239272 96.162909C355.909818 527.592727 405.504 616.727273 523.636364 616.727273c116.829091 0 167.563636-87.389091 164.584727-195.421091 18.618182-41.122909 30.72-66.234182 41.239273-96.162909 22.341818-63.697455 15.127273-90.065455 9.588363-90.647273z"  horiz-adv-x="1024" />

    
    <glyph glyph-name="icn_system_company2x" unicode="&#59715;" d="M512 384m-512 0a512 512 0 1 1 1024 0 512 512 0 1 1-1024 0ZM557.521455 629.666909c14.452364 0 26.181818-11.170909 26.181818-24.948364l-0.023273-78.964363 109.381818-55.296a18.850909 18.850909 0 0 0 10.286546-16.826182v-248.040727H744.727273v-41.378909H279.272727v41.355636h25.134546V604.741818c0 13.777455 11.729455 24.948364 26.205091 24.948364h226.909091z m-143.77891-320.651636h-51.712v-51.712h51.712v51.712z m113.780364 0h-51.735273v-51.712h51.735273v51.712z m113.338182 0h-51.735273v-51.712h51.712v51.712z m-227.141818 113.780363h-51.688728v-51.735272h51.712v51.735272z m113.803636 0h-51.735273v-51.735272h51.735273v51.735272z m113.338182 0h-51.735273v-51.735272h51.712v51.735272z m-227.141818 113.780364h-51.688728v-51.735273h51.712v51.735273z m113.803636 0h-51.735273v-51.735273h51.735273v51.735273z"  horiz-adv-x="1024" />

    
    <glyph glyph-name="icn_new_company2x" unicode="&#59712;" d="M512 384m-512 0a512 512 0 1 1 1024 0 512 512 0 1 1-1024 0ZM577.396364 586.379636a23.272727 23.272727 0 0 0 4.421818-13.661091V302.545455l-0.023273-0.395637 0.023273-105.890909a23.272727 23.272727 0 0 0-36.142546-19.362909l-154.228363 102.4L302.545455 279.272727a23.272727 23.272727 0 0 0-23.272728 23.272728v162.90909a23.272727 23.272727 0 0 0 23.272728 23.272728h100.491636l141.847273 102.842182a23.272727 23.272727 0 0 0 32.512-5.189819z m63.837091-307.153454a21.201455 21.201455 0 0 0 30.021818 0l44.986182-44.986182a21.201455 21.201455 0 0 0-30.021819-30.021818l-44.986181 45.009454a21.201455 21.201455 0 0 0 0 30.021819z m82.292363 126.464a21.201455 21.201455 0 1 0 0-42.426182h-63.650909a21.201455 21.201455 0 1 0 0 42.426182h63.650909z m-7.284363 159.022545a21.201455 21.201455 0 0 0 0-30.021818l-45.009455-44.986182a21.201455 21.201455 0 1 0-29.998545 30.021818l45.009454 44.986182a21.201455 21.201455 0 0 0 29.998546 0z"  horiz-adv-x="1024" />

    
    <glyph glyph-name="icn_system_message2x" unicode="&#59713;" d="M512 384m-512 0a512 512 0 1 1 1024 0 512 512 0 1 1-1024 0ZM575.162182 202.24a63.162182 63.162182 0 0 0-126.324364 0h126.324364zM519.074909 686.545455a13.963636 13.963636 0 0 0 13.963636-13.963637l0.023273-29.44a171.403636 171.403636 0 0 0 150.318546-170.077091v-150.807272c0.558545-11.333818 4.119273-19.828364 10.705454-25.460364 3.607273-3.095273 8.005818-5.725091 13.149091-7.912727a23.272727 23.272727 0 0 0 14.219636-21.410909v-0.837819a17.826909 17.826909 0 0 0-17.826909-17.850181H320.395636a17.850182 17.850182 0 0 0-17.850181 17.850181v0.465455a23.272727 23.272727 0 0 0 14.17309 21.410909c4.957091 2.117818 9.378909 4.887273 13.195637 8.285091 7.144727 6.353455 10.705455 14.568727 10.705454 24.669091v151.598545a171.403636 171.403636 0 0 0 150.318546 170.077091V672.581818a13.963636 13.963636 0 0 0 13.963636 13.963637h14.196364z"  horiz-adv-x="1024" />

    
    <glyph glyph-name="icn_new_member2x" unicode="&#59714;" d="M512 384m-512 0a512 512 0 1 1 1024 0 512 512 0 1 1-1024 0ZM512 374.132364c79.522909 0 109.684364-17.850182 157.789091-42.798546 48.058182-24.948364 74.938182-60.509091 74.938182-94.045091 0-66.653091-104.192-89.553455-232.727273-89.553454s-232.727273 22.900364-232.727273 89.553454c0 28.625455 13.777455 55.970909 63.185455 88.506182 49.431273 32.512 90.018909 48.337455 169.541818 48.337455z m0 292.677818a110.242909 110.242909 0 1 0 0-220.462546 110.242909 110.242909 0 0 0 0 220.462546z"  horiz-adv-x="1024" />

    
    <glyph glyph-name="icn_close_x" unicode="&#59709;" d="M512 896a512 512 0 1 0 0-1024 512 512 0 0 0 0 1024z m0-116.675765a395.324235 395.324235 0 1 1 0-790.64847 395.324235 395.324235 0 0 1 0 790.64847z m0-213.835294a181.549176 181.549176 0 1 0 0-363.038117 181.549176 181.549176 0 0 0 0 363.098352z"  horiz-adv-x="1024" />

    
    <glyph glyph-name="icn_more_x" unicode="&#59708;" d="M512 553.863529a169.863529 169.863529 0 1 0 0-339.727058 169.863529 169.863529 0 0 0 0 339.727058z m402.853647-60.717176a109.146353 109.146353 0 1 0 0-218.292706 109.146353 109.146353 0 0 0 0 218.292706z m-805.707294 0a109.146353 109.146353 0 1 0 0-218.292706 109.146353 109.146353 0 0 0 0 218.292706z"  horiz-adv-x="1024" />

    
    <glyph glyph-name="icn_app_detailsx" unicode="&#59683;" d="M747.818667 344.490667a192 192 0 0 0 157.610666-301.696L1024-75.818667l-45.226667-45.226666-118.186666 118.144a192 192 0 1 0-112.810667 347.392zM832 896a117.333333 117.333333 0 0 0 117.12-110.165333l0.213333-7.168v-350.805334h-64V778.666667a53.333333 53.333333 0 0 1-47.872 53.077333L832 832h-640a53.333333 53.333333 0 0 1-53.077333-47.872l-0.256-5.461333v-725.333334c0-27.605333 20.992-50.346667 47.872-53.077333L192 0h278.144v-64H192a117.333333 117.333333 0 0 0-117.12 110.165333l-0.213333 7.168v725.333334A117.333333 117.333333 0 0 0 184.832 895.786667L192 896h640z m-84.181333-615.509333a128 128 0 1 1 0-256 128 128 0 0 1 0 256zM490.666667 277.333333V213.333333H256v64h234.666667zM768 470.016v-64H256v64h512z m0 192v-64H256v64h512z"  horiz-adv-x="1024" />

    
    <glyph glyph-name="icn_function_menux" unicode="&#59680;" d="M917.333333 21.333333V-42.666667h-810.666666v64h810.666666zM704 554.666667l213.333333-170.666667-213.333333-170.666667V554.666667z m-128-138.666667v-64h-469.333333v64h469.333333z m341.333333 394.666667v-64h-810.666666V810.666667h810.666666z"  horiz-adv-x="1024" />

    
    <glyph glyph-name="icn_how_to_buyx" unicode="&#59684;" d="M512 896c209.109333 0 383.530667-149.973333 425.386667-349.696 36.992-6.058667 65.28-38.101333 65.28-76.672v-164.266667c0-38.912-28.714667-71.125333-66.218667-76.8-24.405333-166.4-179.84-296.874667-373.888-315.008-11.818667-24.576-37.12-41.557333-66.389333-41.557333-40.704 0-73.728 32.853333-73.728 73.386667s33.024 73.386667 73.728 73.386666c36.096 0 66.133333-25.770667 72.533333-59.861333 167.594667 19.456 299.52 131.2 322.901333 271.274667a77.610667 77.610667 0 0 0-34.133333 18.858666 373.333333 373.333333 0 0 0-192.085333-211.754666c-4.053333-1.92-8.192 3.925333-3.242667 10.112 4.992 6.186667 14.165333 13.269333 17.450667 16.298666 42.88 39.637333 106.112 151.253333 87.978666 219.904-5.888 22.357333-20.992 54.314667-41.557333 64.554667-66.005333 32.853333-159.914667 30.293333-209.28 49.322667-9.770667 3.754667-70.314667 7.168-105.344 48.853333-42.666667 50.858667-14.037333 98.773333-38.826667 95.872-19.626667-2.261333-48.597333-52.992-67.498666-100.352-11.648-29.056-17.92-58.922667-20.565334-69.376-46.08-180.906667 8.149333-257.706667 64.085334-313.856 11.306667-11.349333 3.370667-19.84-3.797334-16.213333-83.413333 42.410667-147.285333 116.181333-178.901333 206.165333-13.824-12.970667-32.554667-20.906667-53.12-20.906667H99.413333c-43.093333 0-78.08 34.773333-78.08 77.696v164.266667c0 38.570667 28.245333 70.570667 65.28 76.629333C128.512 746.026667 302.933333 896 512 896z m112.64-708.266667c5.930667 6.485333 16.469333 14.336 14.848-3.413333-3.84-42.752-58.965333-91.264-123.136-91.264-64.170667 0-112.128 40.405333-112.128 63.957333 0 10.325333 3.712 11.306667 13.994667 4.821334 14.165333-8.96 41.642667-25.173333 98.133333-21.930667 57.130667 3.328 93.994667 32 108.288 47.786667zM512 829.44c-175.36 0-322.261333-125.312-359.082667-293.205333 6.997333-4.181333 13.226667-9.386667 18.56-15.402667C226.389333 657.493333 358.186667 753.749333 512 753.749333c153.813333 0 285.610667-96.256 340.608-232.917333 5.248 6.016 11.477333 11.221333 18.432 15.36C834.261333 704.170667 687.317333 829.44 512 829.44z"  horiz-adv-x="1024" />

    
    <glyph glyph-name="icn_weixinx" unicode="&#59672;" d="M512 896C794.760533 896 1024 666.760533 1024 384S794.760533-128 512-128 0 101.239467 0 384 229.239467 896 512 896z m110.296178-464.031289c-82.898489 0-148.002133-57.321244-148.002134-127.658667 0-70.564978 65.080889-127.658667 148.002134-127.658666 17.339733 0 34.884267 4.460089 52.224 8.738133l47.786666-26.487467-13.084444 44.032c34.861511 26.510222 60.893867 61.781333 60.893867 101.353245 0 70.360178-69.563733 127.658667-147.820089 127.658667zM442.9824 577.422222C349.639111 577.422222 273.066667 507.4944 273.066667 418.542933c0-51.313778 25.417956-93.502578 67.925333-126.202311L324.061867 236.088889l59.460266 32.881778c21.253689-4.551111 38.388622-9.329778 59.460267-9.329778 5.256533 0 10.558578 0.227556 15.815111 0.8192a149.048889 149.048889 0 0 0-5.256533 39.1168c0 81.5104 63.783822 147.729067 144.497778 147.729067 5.461333 0 10.922667-0.432356 16.361244-1.046756-14.654578 75.320889-87.836444 131.163022-171.4176 131.163022z m131.299556-216.041244c13.1072 0 21.799822-8.760889 21.799822-17.521778 0-8.783644-8.692622-17.521778-21.799822-17.521778-8.647111 0-17.316978 8.738133-17.316978 17.521778 0 8.760889 8.647111 17.521778 17.316978 17.521778z m95.800888 0c13.1072 0 21.777067-8.760889 21.777067-17.521778 0-8.783644-8.874667-17.521778-21.777067-17.521778-8.647111 0-17.294222 8.738133-17.294222 17.521778 0 8.760889 8.647111 17.521778 17.294222 17.521778z m-163.498666 136.6016c12.788622 0 21.253689-9.307022 21.253689-23.369956 0-14.062933-8.487822-23.369956-21.253689-23.369955-12.811378 0-25.6 9.329778-25.6 23.369955 0.2048 14.085689 12.970667 23.369956 25.6 23.369956z m-118.920534 0c12.811378 0 21.276444-9.284267 21.276445-23.3472 0-13.880889-8.465067-23.369956-21.276445-23.369956-12.811378 0-25.577244 9.307022-25.577244 23.369956 0 14.062933 12.788622 23.369956 25.577244 23.369955z"  horiz-adv-x="1024" />

    
    <glyph glyph-name="icn_app_storex1" unicode="&#59670;" d="M512 896a234.666667 234.666667 0 0 0 234.496-225.237333l0.085333-5.546667H810.666667c70.698667 0 128-59.178667 128-132.224v-528.810667C938.666667-68.778667 881.365333-128 810.666667-128H213.333333c-70.698667 0-128 59.178667-128 132.181333V532.992c0 73.045333 57.301333 132.224 128 132.224h64A234.666667 234.666667 0 0 0 512 896z m298.666667-318.933333H213.333333c-23.552 0-42.666667-19.712-42.666666-44.074667v-528.810667c0-24.32 19.114667-44.032 42.666666-44.032h597.333334c23.552 0 42.666667 19.712 42.666666 44.032V532.992c0 24.32-19.114667 44.074667-42.666666 44.074667zM362.666667 504.746667a139.562667 139.562667 0 0 1 139.562666-139.562667h19.541334A139.562667 139.562667 0 0 1 661.333333 504.746667h85.333334a224.896 224.896 0 0 0-224.896-224.896H502.186667A224.896 224.896 0 0 0 277.333333 504.746667zM512 810.666667a149.333333 149.333333 0 0 1-149.12-141.141334l-0.128-4.309333h298.538667a149.333333 149.333333 0 0 1-141.098667 145.237333L512 810.666667z"  horiz-adv-x="1024" />

    
    <glyph glyph-name="navigation_icn_share_norx1" unicode="&#59669;" d="M550.4 793.6v-64H291.2A121.6 121.6 0 0 1 169.813333 615.125333l-0.213333-7.125333v-448a121.6 121.6 0 0 1 114.474667-121.386667l7.125333-0.213333H736a121.6 121.6 0 0 1 121.386667 114.474667l0.213333 7.125333V422.4h64v-262.4a185.6 185.6 0 0 0-176.64-185.386667l-8.96-0.213333H291.2a185.6 185.6 0 0 0-185.386667 176.64l-0.213333 8.96V608a185.6 185.6 0 0 0 176.64 185.386667l8.96 0.213333H550.4zM846.933333 721.664a32 32 0 0 0 12.117334-62.848 548.608 548.608 0 0 1-431.061334-415.445333 32 32 0 0 0-62.378666 14.421333A612.608 612.608 0 0 0 846.933333 721.664zM739.797333 798.677333l4.053334-1.536 115.498666-52.565333a70.4 70.4 0 0 0 43.776-84.778667l-1.877333-5.845333-50.218667-132.565333a32 32 0 0 0-61.141333 18.56l1.28 4.138666 50.090667 132.138667c0.981333 2.688 0.085333 5.546667-3.2 7.68l-2.901334 1.450667-117.76 53.504a32 32 0 0 0 22.4 59.818666z"  horiz-adv-x="1024" />

    
    <glyph glyph-name="yunchucun-zanting" unicode="&#58907;" d="M512 742.4a358.4 358.4 0 0 0 357.5808-334.2336A204.8 204.8 0 0 0 768 25.6H256a204.8 204.8 0 0 0-101.5808 382.6688A358.4 358.4 0 0 0 512 742.4zM430.08 460.8h-40.96a30.72 30.72 0 0 1-30.72-30.72v-220.16a30.72 30.72 0 0 1 30.72-30.72h40.96a30.72 30.72 0 0 1 30.72 30.72V430.08a30.72 30.72 0 0 1-30.72 30.72z m204.8 0h-40.96a30.72 30.72 0 0 1-30.72-30.72v-220.16a30.72 30.72 0 0 1 30.72-30.72h40.96a30.72 30.72 0 0 1 30.72 30.72V430.08a30.72 30.72 0 0 1-30.72 30.72z"  horiz-adv-x="1024" />

    
    <glyph glyph-name="yunchucun-zhengchang" unicode="&#58908;" d="M512 742.4a358.4 358.4 0 0 0 357.5808-334.2336A204.8 204.8 0 0 0 768 25.6H256a204.8 204.8 0 0 0-101.5808 382.6688A358.4 358.4 0 0 0 512 742.4z m17.7664-263.4752a25.6 25.6 0 0 1-36.1984 0L365.8752 351.232a25.6 25.6 0 0 1 18.1248-43.7248l76.8512 0.0512L460.8 307.2v-102.4a25.6 25.6 0 0 1 25.6-25.6h51.2a25.6 25.6 0 0 1 25.6 25.6v102.4 0.3072h76.1344a25.6 25.6 0 0 1 18.1248 43.7248z"  horiz-adv-x="1024" />

    
    <glyph glyph-name="icn_setting_gongzuotaix" unicode="&#59668;" d="M159.702834 664.210395c-30.837079 64.085588-21.337505 113.483372 37.413707 144.685819L315.203553 879.55843C364.45519 911.345466 414.145269 895.050043 454.993437 840.756324l4.238272-4.384419a73.365941 73.365941 0 0 1 105.372197 0l4.238272 4.384419c41.944273 53.855277 86.519197 71.466026 139.789884 38.729032l118.087012-70.589142c65.766281-40.848168 72.927499-69.127669 37.486781-144.685819l-2.630652-8.403469a72.56213 72.56213 0 0 1 50.566963-91.342058l8.988059-2.41143c93.899635-13.080183 102.303104-52.759172 102.303104-105.956787v-141.251357c0-53.562982-17.24538-102.960767-102.303104-105.956787a72.708278 72.708278 0 0 1-59.993464-90.903616l3.069094-11.253341c25.429629-60.504979 34.709982-101.572368-37.486781-144.685819l-118.087012-70.662216c-63.93944-40.4828-98.795569-8.184248-139.789884 38.729033l-7.59966 7.01507a73.439014 73.439014 0 0 1-98.649422 0l-7.599659-6.941997c-49.178564-57.143591-89.734437-70.442995-139.789884-38.729032l-118.087012 70.589142c-67.227754 37.121412-67.227754 71.027584-37.486781 144.685819l3.215241 12.276372a72.56213 72.56213 0 0 1-59.92039 89.880585C10.70567 215.172841 0.402286 268.662749 0.402286 314.845294V456.096651c0 75.412003 37.267559 93.095825 102.303104 105.956787l9.134206 2.484504A72.56213 72.56213 0 0 1 162.406559 654.856968l-2.776799 9.426501z m92.292015 43.771114l3.580608-7.526586 5.115156-17.391527 0.438442-1.753768a174.134498 174.134498 0 0 0-121.813768-214.690372l-9.134206-2.484504-7.526586-1.826841c-21.118284-4.165198-28.937164-7.01507-27.402617-5.699744 6.065113 5.40745 7.453512 9.207279 7.453512-0.511516v-141.251357c0-10.303384 0.584589-13.007109-1.899915-9.499574-3.79983 5.334376-4.969008 5.845892 8.914985 4.969008l8.184248-0.876884a174.207572 174.207572 0 0 0 144.028157-215.786477l-3.215241-12.203299-4.165198-12.568667c-3.069093-7.672733-5.40745-13.883993-7.088143-18.414558l2.41143-1.315326 113.483372-67.958491a252.834815 252.834815 0 0 1 13.883993 15.053171l8.768837 8.988059 7.59966 6.941996a176.18056 176.18056 0 0 0 236.612465 0l7.672733-6.941996 8.257322-8.40347c5.845892-6.722775 10.522605-11.837931 14.103214-15.710833l113.702593 67.95849a170.992332 170.992332 0 0 1 2.630651 1.680694c-1.60762 4.019051-3.79983 9.645721-6.795849 16.806939l-4.384419 12.42252-2.996019 11.253341a174.426793 174.426793 0 0 0 143.662788 218.197907l11.399489 1.023031c11.545636 0.438442 9.572648-0.438442 5.480523-5.845892-2.557578-3.21524-1.826841-0.219221-1.826841 10.230311V456.096651v2.849873a196.495034 196.495034 0 0 1-14.176287 2.41143l-12.860962 2.630651-8.988059 2.484504-5.115155 1.461473a174.061425 174.061425 0 0 0-116.187097 217.759465l2.557578 8.330396 5.115155 13.153256c2.192209 4.676713 4.092124 8.914985 5.626671 12.641741a245.52745 245.52745 0 0 1-3.142167 1.972988l-114.360256 68.396933a179.030433 179.030433 0 0 1-9.791869-11.61871l-7.161217-8.257322-4.311345-4.384419-4.895934-4.895934A176.107487 176.107487 0 0 0 385.5004 765.92891l-4.311345 4.384419-8.184249 9.572648a121.740694 121.740694 0 0 1-8.62269 10.376457l-117.64857-70.1507c1.096105-2.922946 2.776799-6.941996 5.261303-12.130225zM511.917807 183.531952a200.952526 200.952526 0 1 1 0 401.905053 200.952526 200.952526 0 0 1 0-401.905053z m0 94.99574a105.956787 105.956787 0 1 0 0 211.913573 105.956787 105.956787 0 0 0 0-211.913573z"  horiz-adv-x="1024" />

    
    <glyph glyph-name="icn_add_gongzuotaix" unicode="&#59667;" d="M438.857143 457.142857V822.857143h146.285714v-365.714286h365.714286v-146.285714H585.142857v-365.714286H438.857143V310.857143H73.142857V457.142857h365.714286z"  horiz-adv-x="1024" />

    
    </font>
</defs>
</svg>
